<svg xmlns="http://www.w3.org/2000/svg" id="Layer_2" data-name="Layer 2" viewBox="0 0 71 71"><defs><clipPath id="clippath"><path d="M35.65 71.31c-2.41 0-4.68-.94-6.39-2.64L2.64 42.04C.94 40.33 0 38.07 0 35.65s.94-4.68 2.64-6.39L29.27 2.64C30.98.93 33.24 0 35.66 0s4.68.94 6.39 2.64l26.62 26.62c1.71 1.71 2.64 3.97 2.64 6.39s-.94 4.68-2.64 6.39L42.05 68.66a8.953 8.953 0 0 1-6.39 2.64Zm0-67.48c-1.39 0-2.69.54-3.68 1.52L5.35 31.98c-.98.98-1.52 2.29-1.52 3.68s.54 2.69 1.52 3.68l26.62 26.62c.98.98 2.29 1.52 3.68 1.52s2.69-.54 3.68-1.52l26.62-26.62c.98-.98 1.52-2.29 1.52-3.68s-.54-2.69-1.52-3.68L39.33 5.35a5.174 5.174 0 0 0-3.68-1.52Z" class="cls-1"/></clipPath><clipPath id="clippath-1"><path d="M29.25 22.16a1.16 1.16 0 0 0 2.32 0c0-.51-.32-.93-.78-1.09V15.5c.45-.16.78-.59.78-1.09a1.16 1.16 0 0 0-2.32 0c0 .51.32.93.78 1.09v5.57c-.45.16-.78.59-.78 1.09Z" class="cls-1"/></clipPath><clipPath id="clippath-2"><path d="M30.41 11.69c.64 0 1.16-.52 1.16-1.16 0-.18-.04-.35-.12-.5l2.99-2.99H38l11.4 11.4v5.33l-1.82 2.08-2.62.17c-.19-.44-.64-.74-1.14-.7-.53.03-.94.41-1.05.9l-.57-.57h-6.82c-.16-.45-.59-.78-1.09-.78a1.16 1.16 0 0 0 0 2.32c.51 0 .93-.32 1.09-.78h6.5l2.99 2.99c-.07.15-.12.32-.12.5 0 .64.52 1.16 1.16 1.16.44 0 .81-.24 1.01-.6.17.48.64.81 1.17.78.5-.03.91-.38 1.04-.84l5.56-.36c.19.44.64.74 1.14.7.64-.04 1.13-.6 1.08-1.24-.04-.64-.6-1.13-1.24-1.08-.5.03-.91.38-1.04.84l-5.56.36c-.19-.44-.64-.74-1.14-.7-.41.03-.75.26-.94.59-.16-.45-.59-.77-1.09-.77-.18 0-.35.04-.5.12l-1.26-1.26c.42-.1.74-.42.85-.82l2.94-.19.71-.8c-.02.08-.03.16-.03.24a1.16 1.16 0 0 0 2.32 0c0-.51-.32-.93-.78-1.09v-.88l.77-.88c.16.06.33.1.51.08.64-.04 1.13-.6 1.08-1.24-.04-.64-.6-1.13-1.24-1.08a1.157 1.157 0 0 0-.93 1.73l-.19.22v-4.76L38.29 6.27h-4.2l-3.22 3.22c-.15-.07-.32-.12-.5-.12a1.16 1.16 0 0 0 0 2.32Z" class="cls-1"/></clipPath><clipPath id="clippath-3"><path d="M33.9 22.55h8.3l3.22-3.22c.15.07.32.12.5.12a1.16 1.16 0 1 0-1.16-1.16c0 .18.04.35.12.5l-2.99 2.99h-7.21v-7.21l2.99-2.99c.15.07.32.12.5.12a1.16 1.16 0 1 0-1.16-1.16c0 .18.04.35.12.5l-3.22 3.22v8.3Z" class="cls-1"/></clipPath><clipPath id="clippath-4"><path d="M38.17 17.12a1.16 1.16 0 1 0 1.16 1.16c0-.18-.04-.35-.12-.5l2.33-2.33c.15.07.32.12.5.12a1.16 1.16 0 1 0-1.16-1.16c0 .18.04.35.12.5l-2.33 2.33c-.15-.07-.32-.12-.5-.12Z" class="cls-1"/></clipPath><clipPath id="clippath-5"><path d="M43.98 49.43a1.16 1.16 0 0 0-2.32 0c0 .51.32.93.78 1.09v5.57c-.45.16-.78.59-.78 1.09a1.16 1.16 0 0 0 2.32 0c0-.51-.32-.93-.78-1.09v-5.57c.45-.16.78-.59.78-1.09Z" class="cls-1"/></clipPath><clipPath id="clippath-6"><path d="M42.82 59.9c-.64 0-1.16.52-1.16 1.16 0 .18.04.35.12.5l-2.99 2.99h-3.56l-11.4-11.4v-6.5c.45-.16.78-.59.78-1.09 0-.2-.06-.39-.15-.56l1.89-.12c.19.44.64.74 1.14.7.64-.04 1.13-.6 1.08-1.24-.04-.64-.6-1.13-1.24-1.08-.5.03-.91.38-1.04.84l-2.94.19-.11.12c-.53.09-.94.54-.96 1.1l-1.93 2.2c-.16-.06-.33-.1-.51-.08-.64.04-1.13.6-1.08 1.24.04.64.6 1.13 1.24 1.08a1.157 1.157 0 0 0 .93-1.73l1.65-1.88c.13.14.29.24.47.31v6.82l11.86 11.86h4.2l3.22-3.22c.15.07.32.12.5.12a1.16 1.16 0 0 0 0-2.32Z" class="cls-1"/></clipPath><clipPath id="clippath-7"><path d="M40.11 45.55c0-.64-.52-1.16-1.16-1.16-.51 0-.93.32-1.09.78h-6.5l-2.99-2.99c.07-.15.12-.32.12-.5a1.16 1.16 0 1 0-1.16 1.16c.18 0 .35-.04.5-.12l3.22 3.22h6.82c.16.45.59.78 1.09.78.64 0 1.16-.52 1.16-1.16Z" class="cls-1"/></clipPath><clipPath id="clippath-8"><path d="M39.33 49.04h-8.3l-3.22 3.22c-.15-.07-.32-.12-.5-.12a1.16 1.16 0 1 0 1.16 1.16c0-.18-.04-.35-.12-.5l2.99-2.99h7.21v7.21l-2.99 2.99c-.15-.07-.32-.12-.5-.12a1.16 1.16 0 1 0 1.16 1.16c0-.18-.04-.35-.12-.5l3.22-3.22v-8.3Z" class="cls-1"/></clipPath><clipPath id="clippath-9"><path d="M35.07 54.47a1.16 1.16 0 1 0-1.16-1.16c0 .18.04.35.12.5l-2.33 2.33c-.15-.07-.32-.12-.5-.12a1.16 1.16 0 1 0 1.16 1.16c0-.18-.04-.35-.12-.5l2.33-2.33c.15.07.32.12.5.12Z" class="cls-1"/></clipPath><clipPath id="clippath-10"><path d="M23.36 41.95c.64-.04 1.13-.6 1.08-1.24-.04-.64-.6-1.13-1.24-1.08-.5.03-.91.38-1.04.84l-5.56.36c-.19-.44-.64-.74-1.14-.7-.64.04-1.13.6-1.08 1.24.04.64.6 1.13 1.24 1.08.5-.03.91-.38 1.04-.84l5.56-.36c.19.44.64.74 1.14.7Z" class="cls-1"/></clipPath><clipPath id="clippath-11"><path d="M11.6 40.39c-.18.01-.34.07-.49.15l-3.18-2.79-.23-3.55 10.64-12.12 6.49-.42c.19.44.64.74 1.14.7.06 0 .12-.02.18-.03v2.62c-.45.16-.78.59-.78 1.09a1.16 1.16 0 0 0 2.32 0c0-.51-.32-.93-.78-1.09V22l-.11-.11a1.157 1.157 0 0 0-1.01-1.85c-.23.02-.44.1-.62.23l-1.49-1.49c.07-.15.12-.32.12-.5a1.16 1.16 0 1 0-1.16 1.16c.18 0 .35-.04.5-.12l1.56 1.56-6.75.44-11.06 12.6.27 4.19 3.42 3c-.06.16-.1.33-.08.51.04.64.6 1.13 1.24 1.08.64-.04 1.13-.6 1.08-1.24-.04-.64-.6-1.13-1.24-1.08Z" class="cls-1"/></clipPath><clipPath id="clippath-12"><path d="m26 28.8.44 6.81c-.44.19-.74.64-.7 1.14.04.64.6 1.13 1.24 1.08.64-.04 1.13-.6 1.08-1.24-.03-.5-.38-.91-.84-1.04l-.42-6.49 2.79-3.18c.16.06.33.1.51.08.64-.04 1.13-.6 1.08-1.24-.04-.64-.6-1.13-1.24-1.08a1.157 1.157 0 0 0-.93 1.73l-3 3.42Z" class="cls-1"/></clipPath><clipPath id="clippath-13"><path d="M11.1 32.65c-.64.04-1.13.6-1.08 1.24a1.157 1.157 0 0 0 1.73.93l3.42 3 8.28-.54-.54-8.28-3.42-3c.06-.16.1-.33.08-.51-.04-.64-.6-1.13-1.24-1.08-.64.04-1.13.6-1.08 1.24a1.157 1.157 0 0 0 1.73.93l3.18 2.79.47 7.19-7.19.47-3.18-2.79c.06-.16.1-.33.08-.51-.04-.64-.6-1.13-1.24-1.08Z" class="cls-1"/></clipPath><clipPath id="clippath-14"><path d="M14.71 28.53c-.64.04-1.13.6-1.08 1.24a1.157 1.157 0 0 0 1.73.93l2.48 2.17c-.06.16-.1.33-.08.51.04.64.6 1.13 1.24 1.08.64-.04 1.13-.6 1.08-1.24a1.157 1.157 0 0 0-1.73-.93l-2.48-2.17c.06-.16.1-.33.08-.51-.04-.64-.6-1.13-1.24-1.08Z" class="cls-1"/></clipPath><clipPath id="clippath-15"><path d="m64.4 36.95-.27-4.19-3.42-3c.06-.16.1-.33.08-.51-.04-.64-.6-1.13-1.24-1.08-.64.04-1.13.6-1.08 1.24a1.157 1.157 0 0 0 1.73.93l3.18 2.79.23 3.55L52.97 48.8l-5.89.38v-2.55c.45-.16.78-.59.78-1.09a1.16 1.16 0 0 0-2.32 0c0 .51.32.93.78 1.09v2.3c-.23-.28-.58-.45-.97-.42-.64.04-1.13.6-1.08 1.24.04.64.6 1.13 1.24 1.08.5-.03.91-.38 1.04-.84h.18l2.82 2.8c-.07.15-.12.32-.12.5a1.16 1.16 0 1 0 1.16-1.16c-.18 0-.35.04-.5.12l-2.33-2.33 5.6-.37 11.06-12.6Z" class="cls-1"/></clipPath><clipPath id="clippath-16"><path d="M45.57 34.14c-.04-.64-.6-1.13-1.24-1.08-.64.04-1.13.6-1.08 1.24.03.5.38.91.84 1.04l.42 6.49-2.79 3.18c-.16-.06-.33-.1-.51-.08-.64.04-1.13.6-1.08 1.24.04.64.6 1.13 1.24 1.08a1.157 1.157 0 0 0 .93-1.73l3-3.42-.44-6.81c.44-.19.74-.64.7-1.14Z" class="cls-1"/></clipPath><clipPath id="clippath-17"><path d="M60.21 38.23a1.163 1.163 0 0 0-.16-2.32c-.18.01-.34.07-.49.15l-3.42-3-8.28.54.54 8.28 3.42 3c-.06.16-.1.33-.08.51.04.64.6 1.13 1.24 1.08.64-.04 1.13-.6 1.08-1.24a1.157 1.157 0 0 0-1.73-.93l-3.18-2.79-.47-7.19 7.19-.47 3.18 2.79c-.06.16-.1.33-.08.51.04.64.6 1.13 1.24 1.08Z" class="cls-1"/></clipPath><clipPath id="clippath-18"><path d="M56.6 42.35c.64-.04 1.13-.6 1.08-1.24a1.157 1.157 0 0 0-1.73-.93l-2.48-2.17c.06-.16.1-.33.08-.51-.04-.64-.6-1.13-1.24-1.08-.64.04-1.13.6-1.08 1.24a1.157 1.157 0 0 0 1.73.93l2.48 2.17c-.06.16-.1.33-.08.51.04.64.6 1.13 1.24 1.08Z" class="cls-1"/></clipPath><linearGradient id="linear-gradient" x1="88.32" x2="116.21" y1="35.39" y2="35.39" gradientUnits="userSpaceOnUse"><stop offset="0" stop-color="#8ca6f4"/><stop offset=".99" stop-color="#0360ee"/></linearGradient><linearGradient id="linear-gradient-2" x1="119.1" x2="129.86" y1="38.91" y2="38.91" gradientUnits="userSpaceOnUse"><stop offset="0" stop-color="#3a7cf0"/><stop offset=".99" stop-color="#0360ee"/></linearGradient><style>.cls-1{fill:none}.cls-2{fill:#568af2}.cls-3{fill:#80a0f3}.cls-4{fill:#3f7ff1}.cls-5{fill:#186aef}.cls-6{fill:#608ff2}.cls-7{fill:#2d75f0}.cls-8{fill:#2571f0}.cls-9{fill:#1368ef}.cls-10{fill:#3d7ef1}.cls-11{fill:#8ca6f4}.cls-12{fill:#5c8df2}.cls-13{fill:#1c6cef}.cls-14{fill:#5489f1}.cls-15{fill:#4d85f1}.cls-16{fill:#5288f1}.cls-17{fill:#578bf2}.cls-18{fill:#0e65ef}.cls-19{fill:#4381f1}.cls-20{fill:#88a4f4}.cls-21{fill:#7399f3}.cls-22{fill:#5e8ef2}.cls-23{fill:#4a84f1}.cls-25{fill:#598cf2}.cls-26{fill:#3e7ef1}.cls-29{fill:#025fee}.cls-30{fill:#2e76f0}.cls-31{fill:#015fee}.cls-32{fill:#2f76f0}.cls-33{fill:#216fef}.cls-34{fill:#81a0f3}.cls-35{fill:#2471f0}.cls-36{fill:#0460ee}.cls-37{fill:#749af3}.cls-38{fill:#0862ee}.cls-39{fill:#4682f1}.cls-40{fill:#206fef}.cls-41{fill:#4f86f1}.cls-42{fill:#4180f1}.cls-43{fill:#1267ef}.cls-44{fill:#5589f2}.cls-45{fill:#6893f2}.cls-46{fill:#6592f2}.cls-47{fill:#7f9ff3}.cls-48{fill:#397bf0}.cls-50{fill:#0360ee}.cls-51{fill:#3579f0}.cls-52{fill:#377af0}.cls-53{fill:#789cf3}.cls-54{fill:#6391f2}.cls-55{fill:#0963ee}.cls-56{fill:#1a6bef}.cls-57{fill:#176aef}.cls-58{fill:#196bef}.cls-59{fill:#005eee}.cls-60{fill:#5388f1}.cls-61{fill:#87a3f4}.cls-62{fill:#769bf3}.cls-63{fill:#4582f1}.cls-64{fill:#3c7df1}.cls-65{fill:#3a7cf0}.cls-66{fill:#5087f1}.cls-67{fill:#759af3}.cls-68{fill:#90a8f4}.cls-69{fill:#85a2f4}.cls-70{fill:#3b7df0}.cls-71{fill:#0d65ef}.cls-72{fill:#3479f0}.cls-73{fill:#799cf3}.cls-74{fill:#6491f2}.cls-84{fill:#6290f2}.cls-85{fill:#1d6def}.cls-86{fill:#8ea7f4}.cls-96{fill:#0f66ef}.cls-97{fill:#3177f0}.cls-98{fill:#1569ef}.cls-99{fill:#2873f0}.cls-100{fill:#2973f0}.cls-101{fill:#8da6f4}.cls-102{fill:#2672f0}.cls-103{fill:#7c9ef3}.cls-104{fill:#7e9ff3}.cls-105{fill:#7198f3}.cls-106{fill:#1e6eef}.cls-107{fill:#1066ef}.cls-108{fill:#2772f0}.cls-109{fill:#8fa7f4}.cls-110{fill:#6a94f2}.cls-111{fill:#7d9ef3}.cls-112{fill:#6692f2}.cls-113{fill:#2b74f0}.cls-114{fill:#1f6eef}.cls-115{fill:#0a63ee}.cls-116{fill:#7298f3}.cls-117{fill:#4783f1}.cls-118{fill:#3077f0}.cls-119{fill:#4e86f1}.cls-120{fill:#5d8ef2}.cls-121{fill:#89a4f4}.cls-122{fill:#8aa5f4}.cls-123{fill:#1669ef}.cls-124{fill:#5b8df2}.cls-125{fill:#84a2f3}.cls-126{fill:#86a3f4}.cls-127{fill:#5187f1}.cls-128{fill:#6994f2}.cls-129{fill:#7b9df3}.cls-130{fill:#8ba5f4}.cls-131{fill:#2270ef}.cls-132{fill:#4481f1}.cls-133{fill:#4c85f1}.cls-134{fill:#1468ef}.cls-135{fill:#3278f0}.cls-136{fill:#2c75f0}.cls-137{fill:#0c64ef}.cls-138{fill:#6793f2}.cls-139{fill:#6190f2}.cls-140{fill:#6f97f3}.cls-141{fill:#1b6cef}.cls-142{fill:#387bf0}.cls-143{fill:#5a8cf2}.cls-144{fill:#588bf2}.cls-145{fill:#0b64ee}.cls-146{fill:#1167ef}.cls-147{fill:#6b95f2}.cls-148{fill:#6e96f3}.cls-149{fill:#82a1f3}.cls-150{fill:#6c95f2}.cls-151{fill:#3378f0}.cls-152{fill:#4280f1}.cls-153{fill:#83a1f3}.cls-154{fill:#4983f1}.cls-155{fill:#2370ef}.cls-156{fill:#7a9df3}.cls-157{fill:#407ff1}.cls-158{fill:#367af0}.cls-160{fill:#0762ee}.cls-161{fill:#0661ee}.cls-162{fill:#5f8ff2}.cls-163{fill:#4b84f1}.cls-164{fill:#0561ee}.cls-165{fill:#7097f3}.cls-166{fill:#2a74f0}.cls-167{fill:#779bf3}.cls-168{fill:#6d96f3}</style></defs><g id="Layer_1-2" data-name="Layer 1"><g style="clip-path:url(#clippath)"><path d="M3.83 3.83h.13v63.65h-.13z" class="cls-121"/><path d="M3.96 3.83h.5v63.65h-.5z" class="cls-20"/><path d="M4.46 3.83h.5v63.65h-.5z" class="cls-61"/><path d="M4.95 3.83h.5v63.65h-.5z" class="cls-126"/><path d="M5.45 3.83h.5v63.65h-.5z" class="cls-69"/><path d="M5.94 3.83h.5v63.65h-.5z" class="cls-125"/><path d="M6.44 3.83h.5v63.65h-.5z" class="cls-153"/><path d="M6.93 3.83h.5v63.65h-.5z" class="cls-149"/><path d="M7.43 3.83h.5v63.65h-.5z" class="cls-34"/><path d="M7.92 3.83h.5v63.65h-.5z" class="cls-3"/><path d="M8.42 3.83h.5v63.65h-.5z" class="cls-47"/><path d="M8.91 3.83h.5v63.65h-.5z" class="cls-104"/><path d="M9.41 3.83h.5v63.65h-.5z" class="cls-111"/><path d="M9.9 3.83h.5v63.65h-.5z" class="cls-103"/><path d="M10.4 3.83h.5v63.65h-.5z" class="cls-129"/><path d="M10.89 3.83h.5v63.65h-.5z" class="cls-156"/><path d="M11.39 3.83h.5v63.65h-.5z" class="cls-73"/><path d="M11.88 3.83h.5v63.65h-.5z" class="cls-53"/><path d="M12.38 3.83h.5v63.65h-.5z" class="cls-167"/><path d="M12.88 3.83h.5v63.65h-.5z" class="cls-62"/><path d="M13.37 3.83h.5v63.65h-.5z" class="cls-67"/><path d="M13.87 3.83h.5v63.65h-.5z" class="cls-37"/><path d="M14.36 3.83h.5v63.65h-.5z" class="cls-21"/><path d="M14.86 3.83h.5v63.65h-.5z" class="cls-116"/><path d="M15.35 3.83h.5v63.65h-.5z" class="cls-105"/><path d="M15.85 3.83h.5v63.65h-.5z" class="cls-165"/><path d="M16.34 3.83h.5v63.65h-.5z" class="cls-140"/><path d="M16.84 3.83h.5v63.65h-.5z" class="cls-148"/><path d="M17.33 3.83h.5v63.65h-.5z" class="cls-168"/><path d="M17.83 3.83h.5v63.65h-.5z" class="cls-150"/><path d="M18.32 3.83h.5v63.65h-.5z" class="cls-147"/><path d="M18.82 3.83h.5v63.65h-.5z" class="cls-110"/><path d="M19.31 3.83h.5v63.65h-.5z" class="cls-128"/><path d="M19.81 3.83h.5v63.65h-.5z" class="cls-45"/><path d="M20.3 3.83h.5v63.65h-.5z" class="cls-138"/><path d="M20.8 3.83h.5v63.65h-.5z" class="cls-112"/><path d="M21.29 3.83h.5v63.65h-.5z" class="cls-46"/><path d="M21.79 3.83h.5v63.65h-.5z" class="cls-74"/><path d="M22.28 3.83h.5v63.65h-.5z" class="cls-54"/><path d="M22.78 3.83h.5v63.65h-.5z" class="cls-84"/><path d="M23.27 3.83h.5v63.65h-.5z" class="cls-139"/><path d="M23.77 3.83h.5v63.65h-.5z" class="cls-6"/><path d="M24.27 3.83h.5v63.65h-.5z" class="cls-162"/><path d="M24.76 3.83h.5v63.65h-.5z" class="cls-22"/><path d="M25.26 3.83h.5v63.65h-.5z" class="cls-120"/><path d="M25.75 3.83h.5v63.65h-.5z" class="cls-12"/><path d="M26.25 3.83h.5v63.65h-.5z" class="cls-124"/><path d="M26.74 3.83h.5v63.65h-.5z" class="cls-143"/><path d="M27.24 3.83h.5v63.65h-.5z" class="cls-25"/><path d="M27.73 3.83h.5v63.65h-.5z" class="cls-144"/><path d="M28.23 3.83h.5v63.65h-.5z" class="cls-17"/><path d="M28.72 3.83h.5v63.65h-.5z" class="cls-2"/><path d="M29.22 3.83h.5v63.65h-.5z" class="cls-44"/><path d="M29.71 3.83h.5v63.65h-.5z" class="cls-14"/><path d="M30.21 3.83h.5v63.65h-.5z" class="cls-60"/><path d="M30.7 3.83h.5v63.65h-.5z" class="cls-16"/><path d="M31.2 3.83h.5v63.65h-.5z" class="cls-127"/><path d="M31.69 3.83h.5v63.65h-.5z" class="cls-66"/><path d="M32.19 3.83h.5v63.65h-.5z" class="cls-41"/><path d="M32.68 3.83h.5v63.65h-.5z" class="cls-119"/><path d="M33.18 3.83h.5v63.65h-.5z" class="cls-15"/><path d="M33.67 3.83h.5v63.65h-.5z" class="cls-133"/><path d="M34.17 3.83h.5v63.65h-.5z" class="cls-163"/><path d="M34.66 3.83h.5v63.65h-.5z" class="cls-23"/><path d="M35.16 3.83h.5v63.65h-.5z" class="cls-154"/><path d="M35.65 3.83h.5v63.65h-.5z" class="cls-117"/><path d="M36.15 3.83h.5v63.65h-.5z" class="cls-39"/><path d="M36.65 3.83h.5v63.65h-.5z" class="cls-63"/><path d="M37.14 3.83h.5v63.65h-.5z" class="cls-132"/><path d="M37.64 3.83h.5v63.65h-.5z" class="cls-19"/><path d="M38.13 3.83h.5v63.65h-.5z" class="cls-152"/><path d="M38.63 3.83h.5v63.65h-.5z" class="cls-42"/><path d="M39.12 3.83h.5v63.65h-.5z" class="cls-157"/><path d="M39.62 3.83h.5v63.65h-.5z" class="cls-4"/><path d="M40.11 3.83h.5v63.65h-.5z" class="cls-26"/><path d="M40.61 3.83h.5v63.65h-.5z" class="cls-10"/><path d="M41.1 3.83h.5v63.65h-.5z" class="cls-64"/><path d="M41.6 3.83h.5v63.65h-.5z" class="cls-70"/><path d="M42.09 3.83h.5v63.65h-.5z" class="cls-65"/><path d="M42.59 3.83h.5v63.65h-.5z" class="cls-48"/><path d="M43.08 3.83h.5v63.65h-.5z" class="cls-142"/><path d="M43.58 3.83h.5v63.65h-.5z" class="cls-52"/><path d="M44.07 3.83h.5v63.65h-.5z" class="cls-158"/><path d="M44.57 3.83h.5v63.65h-.5z" class="cls-51"/><path d="M45.06 3.83h.5v63.65h-.5z" class="cls-72"/><path d="M45.56 3.83h.5v63.65h-.5z" class="cls-151"/><path d="M46.05 3.83h.5v63.65h-.5z" class="cls-135"/><path d="M46.55 3.83h.5v63.65h-.5z" class="cls-97"/><path d="M47.04 3.83h.5v63.65h-.5z" class="cls-118"/><path d="M47.54 3.83h.5v63.65h-.5z" class="cls-32"/><path d="M48.03 3.83h.5v63.65h-.5z" class="cls-30"/><path d="M48.53 3.83h.5v63.65h-.5z" class="cls-7"/><path d="M49.03 3.83h.5v63.65h-.5z" class="cls-136"/><path d="M49.52 3.83h.5v63.65h-.5z" class="cls-113"/><path d="M50.02 3.83h.5v63.65h-.5z" class="cls-166"/><path d="M50.51 3.83h.5v63.65h-.5z" class="cls-100"/><path d="M51.01 3.83h.5v63.65h-.5z" class="cls-99"/><path d="M51.5 3.83h.5v63.65h-.5z" class="cls-108"/><path d="M52 3.83h.5v63.65H52z" class="cls-102"/><path d="M52.49 3.83h.5v63.65h-.5z" class="cls-8"/><path d="M52.99 3.83h.5v63.65h-.5z" class="cls-35"/><path d="M53.48 3.83h.5v63.65h-.5z" class="cls-155"/><path d="M53.98 3.83h.5v63.65h-.5z" class="cls-131"/><path d="M54.47 3.83h.5v63.65h-.5z" class="cls-33"/><path d="M54.97 3.83h.5v63.65h-.5z" class="cls-40"/><path d="M55.46 3.83h.5v63.65h-.5z" class="cls-114"/><path d="M55.96 3.83h.5v63.65h-.5z" class="cls-106"/><path d="M56.45 3.83h.5v63.65h-.5z" class="cls-85"/><path d="M56.95 3.83h.5v63.65h-.5z" class="cls-13"/><path d="M57.44 3.83h.5v63.65h-.5z" class="cls-141"/><path d="M57.94 3.83h.5v63.65h-.5z" class="cls-56"/><path d="M58.43 3.83h.5v63.65h-.5z" class="cls-58"/><path d="M58.93 3.83h.5v63.65h-.5z" class="cls-5"/><path d="M59.42 3.83h.5v63.65h-.5z" class="cls-57"/><path d="M59.92 3.83h.5v63.65h-.5z" class="cls-123"/><path d="M60.41 3.83h.5v63.65h-.5z" class="cls-98"/><path d="M60.91 3.83h.5v63.65h-.5z" class="cls-134"/><path d="M61.41 3.83h.5v63.65h-.5z" class="cls-9"/><path d="M61.9 3.83h.5v63.65h-.5z" class="cls-43"/><path d="M62.4 3.83h.5v63.65h-.5z" class="cls-146"/><path d="M62.89 3.83h.5v63.65h-.5z" class="cls-107"/><path d="M63.39 3.83h.5v63.65h-.5z" class="cls-96"/><path d="M63.88 3.83h.5v63.65h-.5z" class="cls-18"/><path d="M64.38 3.83h.5v63.65h-.5z" class="cls-71"/><path d="M64.87 3.83h.5v63.65h-.5z" class="cls-137"/><path d="M65.37 3.83h.5v63.65h-.5z" class="cls-145"/><path d="M65.86 3.83h.5v63.65h-.5z" class="cls-115"/><path d="M66.36 3.83h.5v63.65h-.5z" class="cls-55"/><path d="M66.85 3.83h.5v63.65h-.5z" class="cls-38"/><path d="M67.35 3.83h.13v63.65h-.13z" class="cls-160"/><path d="M0 0h.5v71.31H0z" class="cls-68"/><path d="M.5 0H1v71.31H.5z" class="cls-109"/><path d="M.99 0h.5v71.31h-.5z" class="cls-86"/><path d="M1.49 0h.5v71.31h-.5z" class="cls-101"/><path d="M1.98 0h.5v71.31h-.5z" class="cls-11"/><path d="M2.48 0h.5v71.31h-.5z" class="cls-130"/><path d="M2.97 0h.5v71.31h-.5z" class="cls-122"/><path d="M3.47 0h.5v71.31h-.5z" class="cls-121"/><path d="M3.96 0h.5v71.31h-.5z" class="cls-20"/><path d="M4.46 0h.5v71.31h-.5z" class="cls-61"/><path d="M4.95 0h.5v71.31h-.5z" class="cls-126"/><path d="M5.45 0h.5v71.31h-.5z" class="cls-69"/><path d="M5.94 0h.5v71.31h-.5z" class="cls-125"/><path d="M6.44 0h.5v71.31h-.5z" class="cls-153"/><path d="M6.93 0h.5v71.31h-.5z" class="cls-149"/><path d="M7.43 0h.5v71.31h-.5z" class="cls-34"/><path d="M7.92 0h.5v71.31h-.5z" class="cls-3"/><path d="M8.42 0h.5v71.31h-.5z" class="cls-47"/><path d="M8.91 0h.5v71.31h-.5z" class="cls-104"/><path d="M9.41 0h.5v71.31h-.5z" class="cls-111"/><path d="M9.9 0h.5v71.31h-.5z" class="cls-103"/><path d="M10.4 0h.5v71.31h-.5z" class="cls-129"/><path d="M10.89 0h.5v71.31h-.5z" class="cls-156"/><path d="M11.39 0h.5v71.31h-.5z" class="cls-73"/><path d="M11.88 0h.5v71.31h-.5z" class="cls-53"/><path d="M12.38 0h.5v71.31h-.5z" class="cls-167"/><path d="M12.88 0h.5v71.31h-.5z" class="cls-62"/><path d="M13.37 0h.5v71.31h-.5z" class="cls-67"/><path d="M13.87 0h.5v71.31h-.5z" class="cls-37"/><path d="M14.36 0h.5v71.31h-.5z" class="cls-21"/><path d="M14.86 0h.5v71.31h-.5z" class="cls-116"/><path d="M15.35 0h.5v71.31h-.5z" class="cls-105"/><path d="M15.85 0h.5v71.31h-.5z" class="cls-165"/><path d="M16.34 0h.5v71.31h-.5z" class="cls-140"/><path d="M16.84 0h.5v71.31h-.5z" class="cls-148"/><path d="M17.33 0h.5v71.31h-.5z" class="cls-168"/><path d="M17.83 0h.5v71.31h-.5z" class="cls-150"/><path d="M18.32 0h.5v71.31h-.5z" class="cls-147"/><path d="M18.82 0h.5v71.31h-.5z" class="cls-110"/><path d="M19.31 0h.5v71.31h-.5z" class="cls-128"/><path d="M19.81 0h.5v71.31h-.5z" class="cls-45"/><path d="M20.3 0h.5v71.31h-.5z" class="cls-138"/><path d="M20.8 0h.5v71.31h-.5z" class="cls-112"/><path d="M21.29 0h.5v71.31h-.5z" class="cls-46"/><path d="M21.79 0h.5v71.31h-.5z" class="cls-74"/><path d="M22.28 0h.5v71.31h-.5z" class="cls-54"/><path d="M22.78 0h.5v71.31h-.5z" class="cls-84"/><path d="M23.27 0h.5v71.31h-.5z" class="cls-139"/><path d="M23.77 0h.5v71.31h-.5z" class="cls-6"/><path d="M24.27 0h.5v71.31h-.5z" class="cls-162"/><path d="M24.76 0h.5v71.31h-.5z" class="cls-22"/><path d="M25.26 0h.5v71.31h-.5z" class="cls-120"/><path d="M25.75 0h.5v71.31h-.5z" class="cls-12"/><path d="M26.25 0h.5v71.31h-.5z" class="cls-124"/><path d="M26.74 0h.5v71.31h-.5z" class="cls-143"/><path d="M27.24 0h.5v71.31h-.5z" class="cls-25"/><path d="M27.73 0h.5v71.31h-.5z" class="cls-144"/><path d="M28.23 0h.5v71.31h-.5z" class="cls-17"/><path d="M28.72 0h.5v71.31h-.5z" class="cls-2"/><path d="M29.22 0h.5v71.31h-.5z" class="cls-44"/><path d="M29.71 0h.5v71.31h-.5z" class="cls-14"/><path d="M30.21 0h.5v71.31h-.5z" class="cls-60"/><path d="M30.7 0h.5v71.31h-.5z" class="cls-16"/><path d="M31.2 0h.5v71.31h-.5z" class="cls-127"/><path d="M31.69 0h.5v71.31h-.5z" class="cls-66"/><path d="M32.19 0h.5v71.31h-.5z" class="cls-41"/><path d="M32.68 0h.5v71.31h-.5z" class="cls-119"/><path d="M33.18 0h.5v71.31h-.5z" class="cls-15"/><path d="M33.67 0h.5v71.31h-.5z" class="cls-133"/><path d="M34.17 0h.5v71.31h-.5z" class="cls-163"/><path d="M34.66 0h.5v71.31h-.5z" class="cls-23"/><path d="M35.16 0h.5v71.31h-.5z" class="cls-154"/><path d="M35.65 0h.5v71.31h-.5z" class="cls-117"/><path d="M36.15 0h.5v71.31h-.5z" class="cls-39"/><path d="M36.65 0h.5v71.31h-.5z" class="cls-63"/><path d="M37.14 0h.5v71.31h-.5z" class="cls-132"/><path d="M37.64 0h.5v71.31h-.5z" class="cls-19"/><path d="M38.13 0h.5v71.31h-.5z" class="cls-152"/><path d="M38.63 0h.5v71.31h-.5z" class="cls-42"/><path d="M39.12 0h.5v71.31h-.5z" class="cls-157"/><path d="M39.62 0h.5v71.31h-.5z" class="cls-4"/><path d="M40.11 0h.5v71.31h-.5z" class="cls-26"/><path d="M40.61 0h.5v71.31h-.5z" class="cls-10"/><path d="M41.1 0h.5v71.31h-.5z" class="cls-64"/><path d="M41.6 0h.5v71.31h-.5z" class="cls-70"/><path d="M42.09 0h.5v71.31h-.5z" class="cls-65"/><path d="M42.59 0h.5v71.31h-.5z" class="cls-48"/><path d="M43.08 0h.5v71.31h-.5z" class="cls-142"/><path d="M43.58 0h.5v71.31h-.5z" class="cls-52"/><path d="M44.07 0h.5v71.31h-.5z" class="cls-158"/><path d="M44.57 0h.5v71.31h-.5z" class="cls-51"/><path d="M45.06 0h.5v71.31h-.5z" class="cls-72"/><path d="M45.56 0h.5v71.31h-.5z" class="cls-151"/><path d="M46.05 0h.5v71.31h-.5z" class="cls-135"/><path d="M46.55 0h.5v71.31h-.5z" class="cls-97"/><path d="M47.04 0h.5v71.31h-.5z" class="cls-118"/><path d="M47.54 0h.5v71.31h-.5z" class="cls-32"/><path d="M48.03 0h.5v71.31h-.5z" class="cls-30"/><path d="M48.53 0h.5v71.31h-.5z" class="cls-7"/><path d="M49.03 0h.5v71.31h-.5z" class="cls-136"/><path d="M49.52 0h.5v71.31h-.5z" class="cls-113"/><path d="M50.02 0h.5v71.31h-.5z" class="cls-166"/><path d="M50.51 0h.5v71.31h-.5z" class="cls-100"/><path d="M51.01 0h.5v71.31h-.5z" class="cls-99"/><path d="M51.5 0h.5v71.31h-.5z" class="cls-108"/><path d="M52 0h.5v71.31H52z" class="cls-102"/><path d="M52.49 0h.5v71.31h-.5z" class="cls-8"/><path d="M52.99 0h.5v71.31h-.5z" class="cls-35"/><path d="M53.48 0h.5v71.31h-.5z" class="cls-155"/><path d="M53.98 0h.5v71.31h-.5z" class="cls-131"/><path d="M54.47 0h.5v71.31h-.5z" class="cls-33"/><path d="M54.97 0h.5v71.31h-.5z" class="cls-40"/><path d="M55.46 0h.5v71.31h-.5z" class="cls-114"/><path d="M55.96 0h.5v71.31h-.5z" class="cls-106"/><path d="M56.45 0h.5v71.31h-.5z" class="cls-85"/><path d="M56.95 0h.5v71.31h-.5z" class="cls-13"/><path d="M57.44 0h.5v71.31h-.5z" class="cls-141"/><path d="M57.94 0h.5v71.31h-.5z" class="cls-56"/><path d="M58.43 0h.5v71.31h-.5z" class="cls-58"/><path d="M58.93 0h.5v71.31h-.5z" class="cls-5"/><path d="M59.42 0h.5v71.31h-.5z" class="cls-57"/><path d="M59.92 0h.5v71.31h-.5z" class="cls-123"/><path d="M60.41 0h.5v71.31h-.5z" class="cls-98"/><path d="M60.91 0h.5v71.31h-.5z" class="cls-134"/><path d="M61.41 0h.5v71.31h-.5z" class="cls-9"/><path d="M61.9 0h.5v71.31h-.5z" class="cls-43"/><path d="M62.4 0h.5v71.31h-.5z" class="cls-146"/><path d="M62.89 0h.5v71.31h-.5z" class="cls-107"/><path d="M63.39 0h.5v71.31h-.5z" class="cls-96"/><path d="M63.88 0h.5v71.31h-.5z" class="cls-18"/><path d="M64.38 0h.5v71.31h-.5z" class="cls-71"/><path d="M64.87 0h.5v71.31h-.5z" class="cls-137"/><path d="M65.37 0h.5v71.31h-.5z" class="cls-145"/><path d="M65.86 0h.5v71.31h-.5z" class="cls-115"/><path d="M66.36 0h.5v71.31h-.5z" class="cls-55"/><path d="M66.85 0h.5v71.31h-.5z" class="cls-38"/><path d="M67.35 0h.5v71.31h-.5z" class="cls-160"/><path d="M67.84 0h.5v71.31h-.5z" class="cls-161"/><path d="M68.34 0h.5v71.31h-.5z" class="cls-164"/><path d="M68.83 0h.5v71.31h-.5z" class="cls-36"/><path d="M69.33 0h.5v71.31h-.5z" class="cls-50"/><path d="M69.82 0h.5v71.31h-.5z" class="cls-29"/><path d="M70.32 0h.5v71.31h-.5z" class="cls-31"/><path d="M70.81 0h.5v71.31h-.5z" class="cls-59"/></g><g style="clip-path:url(#clippath-1)"><path d="M29.25 13.25h2.33v.34h-2.33z" class="cls-47"/><path d="M29.25 13.59h2.33v.34h-2.33z" class="cls-104"/><path d="M29.25 13.93h2.33v.34h-2.33z" class="cls-111"/><path d="M29.25 14.28h2.33v.34h-2.33z" class="cls-103"/><path d="M29.25 14.62h2.33v.34h-2.33z" class="cls-129"/><path d="M29.25 14.96h2.33v.34h-2.33z" class="cls-156"/><path d="M29.25 15.3h2.33v.34h-2.33z" class="cls-73"/><path d="M29.25 15.64h2.33v.34h-2.33z" class="cls-53"/><path d="M29.25 15.98h2.33v.34h-2.33z" class="cls-167"/><path d="M29.25 16.32h2.33v.34h-2.33z" class="cls-62"/><path d="M29.25 16.67h2.33v.34h-2.33z" class="cls-67"/><path d="M29.25 17.01h2.33v.34h-2.33z" class="cls-37"/><path d="M29.25 17.35h2.33v.34h-2.33z" class="cls-21"/><path d="M29.25 17.69h2.33v.34h-2.33z" class="cls-116"/><path d="M29.25 18.03h2.33v.34h-2.33z" class="cls-105"/><path d="M29.25 18.37h2.33v.34h-2.33z" class="cls-165"/><path d="M29.25 18.71h2.33v.34h-2.33z" class="cls-140"/><path d="M29.25 19.06h2.33v.34h-2.33z" class="cls-148"/><path d="M29.25 19.4h2.33v.34h-2.33z" class="cls-168"/><path d="M29.25 19.74h2.33v.34h-2.33z" class="cls-150"/><path d="M29.25 20.08h2.33v.34h-2.33z" class="cls-147"/><path d="M29.25 20.42h2.33v.34h-2.33z" class="cls-110"/><path d="M29.25 20.76h2.33v.34h-2.33z" class="cls-128"/><path d="M29.25 21.1h2.33v.34h-2.33z" class="cls-45"/><path d="M29.25 21.45h2.33v.34h-2.33z" class="cls-138"/><path d="M29.25 21.79h2.33v.34h-2.33z" class="cls-112"/><path d="M29.25 22.13h2.33v.34h-2.33z" class="cls-46"/><path d="M29.25 22.47h2.33v.34h-2.33z" class="cls-74"/><path d="M29.25 22.81h2.33v.34h-2.33z" class="cls-54"/><path d="M29.25 23.15h2.33v.17h-2.33z" class="cls-84"/></g><g style="clip-path:url(#clippath-2)"><path d="M29.25 6.26h27.71v1.18H29.25zm0 1.19h27.71v.34H29.25z" class="cls-68"/><path d="M29.25 7.79h27.71v.34H29.25z" class="cls-109"/><path d="M29.25 8.13h27.71v.34H29.25z" class="cls-86"/><path d="M29.25 8.47h27.71v.34H29.25z" class="cls-101"/><path d="M29.25 8.81h27.71v.34H29.25z" class="cls-11"/><path d="M29.25 9.15h27.71v.34H29.25z" class="cls-130"/><path d="M29.25 9.5h27.71v.34H29.25z" class="cls-122"/><path d="M29.25 9.84h27.71v.34H29.25z" class="cls-121"/><path d="M29.25 10.18h27.71v.34H29.25z" class="cls-20"/><path d="M29.25 10.52h27.71v.34H29.25z" class="cls-61"/><path d="M29.25 10.86h27.71v.34H29.25z" class="cls-126"/><path d="M29.25 11.2h27.71v.34H29.25z" class="cls-69"/><path d="M29.25 11.54h27.71v.34H29.25z" class="cls-125"/><path d="M29.25 11.89h27.71v.34H29.25z" class="cls-153"/><path d="M29.25 12.23h27.71v.34H29.25z" class="cls-149"/><path d="M29.25 12.57h27.71v.34H29.25z" class="cls-34"/><path d="M29.25 12.91h27.71v.34H29.25z" class="cls-3"/><path d="M29.25 13.25h27.71v.34H29.25z" class="cls-47"/><path d="M29.25 13.59h27.71v.34H29.25z" class="cls-104"/><path d="M29.25 13.93h27.71v.34H29.25z" class="cls-111"/><path d="M29.25 14.28h27.71v.34H29.25z" class="cls-103"/><path d="M29.25 14.62h27.71v.34H29.25z" class="cls-129"/><path d="M29.25 14.96h27.71v.34H29.25z" class="cls-156"/><path d="M29.25 15.3h27.71v.34H29.25z" class="cls-73"/><path d="M29.25 15.64h27.71v.34H29.25z" class="cls-53"/><path d="M29.25 15.98h27.71v.34H29.25z" class="cls-167"/><path d="M29.25 16.32h27.71v.34H29.25z" class="cls-62"/><path d="M29.25 16.67h27.71v.34H29.25z" class="cls-67"/><path d="M29.25 17.01h27.71v.34H29.25z" class="cls-37"/><path d="M29.25 17.35h27.71v.34H29.25z" class="cls-21"/><path d="M29.25 17.69h27.71v.34H29.25z" class="cls-116"/><path d="M29.25 18.03h27.71v.34H29.25z" class="cls-105"/><path d="M29.25 18.37h27.71v.34H29.25z" class="cls-165"/><path d="M29.25 18.71h27.71v.34H29.25z" class="cls-140"/><path d="M29.25 19.06h27.71v.34H29.25z" class="cls-148"/><path d="M29.25 19.4h27.71v.34H29.25z" class="cls-168"/><path d="M29.25 19.74h27.71v.34H29.25z" class="cls-150"/><path d="M29.25 20.08h27.71v.34H29.25z" class="cls-147"/><path d="M29.25 20.42h27.71v.34H29.25z" class="cls-110"/><path d="M29.25 20.76h27.71v.34H29.25z" class="cls-128"/><path d="M29.25 21.1h27.71v.34H29.25z" class="cls-45"/><path d="M29.25 21.45h27.71v.34H29.25z" class="cls-138"/><path d="M29.25 21.79h27.71v.34H29.25z" class="cls-112"/><path d="M29.25 22.13h27.71v.34H29.25z" class="cls-46"/><path d="M29.25 22.47h27.71v.34H29.25z" class="cls-74"/><path d="M29.25 22.81h27.71v.34H29.25z" class="cls-54"/><path d="M29.25 23.15h27.71v.34H29.25z" class="cls-84"/><path d="M29.25 23.49h27.71v.34H29.25z" class="cls-139"/><path d="M29.25 23.84h27.71v.34H29.25z" class="cls-6"/><path d="M29.25 24.18h27.71v.34H29.25z" class="cls-162"/><path d="M29.25 24.52h27.71v.34H29.25z" class="cls-22"/><path d="M29.25 24.86h27.71v.34H29.25z" class="cls-120"/><path d="M29.25 25.2h27.71v.34H29.25z" class="cls-12"/><path d="M29.25 25.54h27.71v.34H29.25z" class="cls-124"/><path d="M29.25 25.88h27.71v.34H29.25z" class="cls-143"/><path d="M29.25 26.23h27.71v.34H29.25z" class="cls-25"/><path d="M29.25 26.57h27.71v.34H29.25z" class="cls-144"/><path d="M29.25 26.91h27.71v.34H29.25z" class="cls-17"/><path d="M29.25 27.25h27.71v.34H29.25z" class="cls-2"/><path d="M29.25 27.59h27.71v.34H29.25z" class="cls-44"/><path d="M29.25 27.93h27.71v.34H29.25z" class="cls-14"/><path d="M29.25 28.27h27.71v.34H29.25z" class="cls-60"/><path d="M29.25 28.62h27.71v.34H29.25z" class="cls-16"/><path d="M29.25 28.96h27.71v.34H29.25z" class="cls-127"/><path d="M29.25 29.3h27.71v.34H29.25z" class="cls-66"/><path d="M29.25 29.64h27.71v.34H29.25z" class="cls-41"/><path d="M29.25 29.98h27.71v.34H29.25z" class="cls-119"/><path d="M29.25 30.32h27.71v.34H29.25z" class="cls-15"/><path d="M29.25 30.66h27.71V31H29.25z" class="cls-133"/><path d="M29.25 31.01h27.71v.28H29.25z" class="cls-163"/></g><g style="clip-path:url(#clippath-3)"><path d="M33.9 9.37h13.18v.13H33.9z" class="cls-130"/><path d="M33.9 9.5h13.18v.34H33.9z" class="cls-122"/><path d="M33.9 9.84h13.18v.34H33.9z" class="cls-121"/><path d="M33.9 10.18h13.18v.34H33.9z" class="cls-20"/><path d="M33.9 10.52h13.18v.34H33.9z" class="cls-61"/><path d="M33.9 10.86h13.18v.34H33.9z" class="cls-126"/><path d="M33.9 11.2h13.18v.34H33.9z" class="cls-69"/><path d="M33.9 11.54h13.18v.34H33.9z" class="cls-125"/><path d="M33.9 11.89h13.18v.34H33.9z" class="cls-153"/><path d="M33.9 12.23h13.18v.34H33.9z" class="cls-149"/><path d="M33.9 12.57h13.18v.34H33.9z" class="cls-34"/><path d="M33.9 12.91h13.18v.34H33.9z" class="cls-3"/><path d="M33.9 13.25h13.18v.34H33.9z" class="cls-47"/><path d="M33.9 13.59h13.18v.34H33.9z" class="cls-104"/><path d="M33.9 13.93h13.18v.34H33.9z" class="cls-111"/><path d="M33.9 14.28h13.18v.34H33.9z" class="cls-103"/><path d="M33.9 14.62h13.18v.34H33.9z" class="cls-129"/><path d="M33.9 14.96h13.18v.34H33.9z" class="cls-156"/><path d="M33.9 15.3h13.18v.34H33.9z" class="cls-73"/><path d="M33.9 15.64h13.18v.34H33.9z" class="cls-53"/><path d="M33.9 15.98h13.18v.34H33.9z" class="cls-167"/><path d="M33.9 16.32h13.18v.34H33.9z" class="cls-62"/><path d="M33.9 16.67h13.18v.34H33.9z" class="cls-67"/><path d="M33.9 17.01h13.18v.34H33.9z" class="cls-37"/><path d="M33.9 17.35h13.18v.34H33.9z" class="cls-21"/><path d="M33.9 17.69h13.18v.34H33.9z" class="cls-116"/><path d="M33.9 18.03h13.18v.34H33.9z" class="cls-105"/><path d="M33.9 18.37h13.18v.34H33.9z" class="cls-165"/><path d="M33.9 18.71h13.18v.34H33.9z" class="cls-140"/><path d="M33.9 19.06h13.18v.34H33.9z" class="cls-148"/><path d="M33.9 19.4h13.18v.34H33.9z" class="cls-168"/><path d="M33.9 19.74h13.18v.34H33.9z" class="cls-150"/><path d="M33.9 20.08h13.18v.34H33.9z" class="cls-147"/><path d="M33.9 20.42h13.18v.34H33.9z" class="cls-110"/><path d="M33.9 20.76h13.18v.34H33.9z" class="cls-128"/><path d="M33.9 21.1h13.18v.34H33.9z" class="cls-45"/><path d="M33.9 21.45h13.18v.34H33.9z" class="cls-138"/><path d="M33.9 21.79h13.18v.34H33.9z" class="cls-112"/><path d="M33.9 22.13h13.18v.34H33.9z" class="cls-46"/><path d="M33.9 22.47h13.18v.08H33.9z" class="cls-74"/></g><g style="clip-path:url(#clippath-4)"><path d="M37.01 13.25h6.2v.34h-6.2z" class="cls-47"/><path d="M37.01 13.59h6.2v.34h-6.2z" class="cls-104"/><path d="M37.01 13.93h6.2v.34h-6.2z" class="cls-111"/><path d="M37.01 14.28h6.2v.34h-6.2z" class="cls-103"/><path d="M37.01 14.62h6.2v.34h-6.2z" class="cls-129"/><path d="M37.01 14.96h6.2v.34h-6.2z" class="cls-156"/><path d="M37.01 15.3h6.2v.34h-6.2z" class="cls-73"/><path d="M37.01 15.64h6.2v.34h-6.2z" class="cls-53"/><path d="M37.01 15.98h6.2v.34h-6.2z" class="cls-167"/><path d="M37.01 16.32h6.2v.34h-6.2z" class="cls-62"/><path d="M37.01 16.67h6.2v.34h-6.2z" class="cls-67"/><path d="M37.01 17.01h6.2v.34h-6.2z" class="cls-37"/><path d="M37.01 17.35h6.2v.34h-6.2z" class="cls-21"/><path d="M37.01 17.69h6.2v.34h-6.2z" class="cls-116"/><path d="M37.01 18.03h6.2v.34h-6.2z" class="cls-105"/><path d="M37.01 18.37h6.2v.34h-6.2z" class="cls-165"/><path d="M37.01 18.71h6.2v.34h-6.2z" class="cls-140"/><path d="M37.01 19.06h6.2v.34h-6.2z" class="cls-148"/><path d="M37.01 19.4h6.2v.05h-6.2z" class="cls-168"/></g><g style="clip-path:url(#clippath-5)"><path d="M41.66 48.26h2.33v.15h-2.33z" class="cls-5"/><path d="M41.66 48.42h2.33v.34h-2.33z" class="cls-57"/><path d="M41.66 48.76h2.33v.34h-2.33z" class="cls-123"/><path d="M41.66 49.1h2.33v.34h-2.33z" class="cls-98"/><path d="M41.66 49.44h2.33v.34h-2.33z" class="cls-134"/><path d="M41.66 49.79h2.33v.34h-2.33z" class="cls-9"/><path d="M41.66 50.13h2.33v.34h-2.33z" class="cls-43"/><path d="M41.66 50.47h2.33v.34h-2.33z" class="cls-146"/><path d="M41.66 50.81h2.33v.34h-2.33z" class="cls-107"/><path d="M41.66 51.15h2.33v.34h-2.33z" class="cls-96"/><path d="M41.66 51.49h2.33v.34h-2.33z" class="cls-18"/><path d="M41.66 51.83h2.33v.34h-2.33z" class="cls-71"/><path d="M41.66 52.18h2.33v.34h-2.33z" class="cls-137"/><path d="M41.66 52.52h2.33v.34h-2.33z" class="cls-145"/><path d="M41.66 52.86h2.33v.34h-2.33z" class="cls-115"/><path d="M41.66 53.2h2.33v.34h-2.33z" class="cls-55"/><path d="M41.66 53.54h2.33v.34h-2.33z" class="cls-38"/><path d="M41.66 53.88h2.33v.34h-2.33z" class="cls-160"/><path d="M41.66 54.22h2.33v.34h-2.33z" class="cls-161"/><path d="M41.66 54.57h2.33v.34h-2.33z" class="cls-164"/><path d="M41.66 54.91h2.33v.34h-2.33z" class="cls-36"/><path d="M41.66 55.25h2.33v.34h-2.33z" class="cls-50"/><path d="M41.66 55.59h2.33v.34h-2.33z" class="cls-29"/><path d="M41.66 55.93h2.33v.34h-2.33z" class="cls-31"/><path d="M41.66 56.27h2.33v.34h-2.33z" class="cls-59"/><path d="M41.66 56.61h2.33v1.73h-2.33z" class="cls-59"/></g><g style="clip-path:url(#clippath-6)"><path d="M18.72 43.21h25.27v.09H18.72z" class="cls-108"/><path d="M18.72 43.3h25.27v.34H18.72z" class="cls-102"/><path d="M18.72 43.64h25.27v.34H18.72z" class="cls-8"/><path d="M18.72 43.98h25.27v.34H18.72z" class="cls-35"/><path d="M18.72 44.32h25.27v.34H18.72z" class="cls-155"/><path d="M18.72 44.66h25.27V45H18.72z" class="cls-131"/><path d="M18.72 45.01h25.27v.34H18.72z" class="cls-33"/><path d="M18.72 45.35h25.27v.34H18.72z" class="cls-40"/><path d="M18.72 45.69h25.27v.34H18.72z" class="cls-114"/><path d="M18.72 46.03h25.27v.34H18.72z" class="cls-106"/><path d="M18.72 46.37h25.27v.34H18.72z" class="cls-85"/><path d="M18.72 46.71h25.27v.34H18.72z" class="cls-13"/><path d="M18.72 47.05h25.27v.34H18.72z" class="cls-141"/><path d="M18.72 47.4h25.27v.34H18.72z" class="cls-56"/><path d="M18.72 47.74h25.27v.34H18.72z" class="cls-58"/><path d="M18.72 48.08h25.27v.34H18.72z" class="cls-5"/><path d="M18.72 48.42h25.27v.34H18.72z" class="cls-57"/><path d="M18.72 48.76h25.27v.34H18.72z" class="cls-123"/><path d="M18.72 49.1h25.27v.34H18.72z" class="cls-98"/><path d="M18.72 49.44h25.27v.34H18.72z" class="cls-134"/><path d="M18.72 49.79h25.27v.34H18.72z" class="cls-9"/><path d="M18.72 50.13h25.27v.34H18.72z" class="cls-43"/><path d="M18.72 50.47h25.27v.34H18.72z" class="cls-146"/><path d="M18.72 50.81h25.27v.34H18.72z" class="cls-107"/><path d="M18.72 51.15h25.27v.34H18.72z" class="cls-96"/><path d="M18.72 51.49h25.27v.34H18.72z" class="cls-18"/><path d="M18.72 51.83h25.27v.34H18.72z" class="cls-71"/><path d="M18.72 52.18h25.27v.34H18.72z" class="cls-137"/><path d="M18.72 52.52h25.27v.34H18.72z" class="cls-145"/><path d="M18.72 52.86h25.27v.34H18.72z" class="cls-115"/><path d="M18.72 53.2h25.27v.34H18.72z" class="cls-55"/><path d="M18.72 53.54h25.27v.34H18.72z" class="cls-38"/><path d="M18.72 53.88h25.27v.34H18.72z" class="cls-160"/><path d="M18.72 54.22h25.27v.34H18.72z" class="cls-161"/><path d="M18.72 54.57h25.27v.34H18.72z" class="cls-164"/><path d="M18.72 54.91h25.27v.34H18.72z" class="cls-36"/><path d="M18.72 55.25h25.27v.34H18.72z" class="cls-50"/><path d="M18.72 55.59h25.27v.34H18.72z" class="cls-29"/><path d="M18.72 55.93h25.27v.34H18.72z" class="cls-31"/><path d="M18.72 56.27h25.27v.34H18.72z" class="cls-59"/><path d="M18.72 56.61h25.27v8.71H18.72z" class="cls-59"/></g><g style="clip-path:url(#clippath-7)"><path d="M26.15 40.51h13.96v.06H26.15z" class="cls-32"/><path d="M26.15 40.57h13.96v.34H26.15z" class="cls-30"/><path d="M26.15 40.91h13.96v.34H26.15z" class="cls-7"/><path d="M26.15 41.25h13.96v.34H26.15z" class="cls-136"/><path d="M26.15 41.59h13.96v.34H26.15z" class="cls-113"/><path d="M26.15 41.93h13.96v.34H26.15z" class="cls-166"/><path d="M26.15 42.27h13.96v.34H26.15z" class="cls-100"/><path d="M26.15 42.62h13.96v.34H26.15z" class="cls-99"/><path d="M26.15 42.96h13.96v.34H26.15z" class="cls-108"/><path d="M26.15 43.3h13.96v.34H26.15z" class="cls-102"/><path d="M26.15 43.64h13.96v.34H26.15z" class="cls-8"/><path d="M26.15 43.98h13.96v.34H26.15z" class="cls-35"/><path d="M26.15 44.32h13.96v.34H26.15z" class="cls-155"/><path d="M26.15 44.66h13.96V45H26.15z" class="cls-131"/><path d="M26.15 45.01h13.96v.34H26.15z" class="cls-33"/><path d="M26.15 45.35h13.96v.34H26.15z" class="cls-40"/><path d="M26.15 45.69h13.96v.34H26.15z" class="cls-114"/><path d="M26.15 46.03h13.96v.34H26.15z" class="cls-106"/><path d="M26.15 46.37h13.96v.34H26.15z" class="cls-85"/></g><g style="clip-path:url(#clippath-8)"><path d="M26.15 49.04h13.18v.06H26.15z" class="cls-123"/><path d="M26.15 49.1h13.18v.34H26.15z" class="cls-98"/><path d="M26.15 49.44h13.18v.34H26.15z" class="cls-134"/><path d="M26.15 49.79h13.18v.34H26.15z" class="cls-9"/><path d="M26.15 50.13h13.18v.34H26.15z" class="cls-43"/><path d="M26.15 50.47h13.18v.34H26.15z" class="cls-146"/><path d="M26.15 50.81h13.18v.34H26.15z" class="cls-107"/><path d="M26.15 51.15h13.18v.34H26.15z" class="cls-96"/><path d="M26.15 51.49h13.18v.34H26.15z" class="cls-18"/><path d="M26.15 51.83h13.18v.34H26.15z" class="cls-71"/><path d="M26.15 52.18h13.18v.34H26.15z" class="cls-137"/><path d="M26.15 52.52h13.18v.34H26.15z" class="cls-145"/><path d="M26.15 52.86h13.18v.34H26.15z" class="cls-115"/><path d="M26.15 53.2h13.18v.34H26.15z" class="cls-55"/><path d="M26.15 53.54h13.18v.34H26.15z" class="cls-38"/><path d="M26.15 53.88h13.18v.34H26.15z" class="cls-160"/><path d="M26.15 54.22h13.18v.34H26.15z" class="cls-161"/><path d="M26.15 54.57h13.18v.34H26.15z" class="cls-164"/><path d="M26.15 54.91h13.18v.34H26.15z" class="cls-36"/><path d="M26.15 55.25h13.18v.34H26.15z" class="cls-50"/><path d="M26.15 55.59h13.18v.34H26.15z" class="cls-29"/><path d="M26.15 55.93h13.18v.34H26.15z" class="cls-31"/><path d="M26.15 56.27h13.18v.34H26.15z" class="cls-59"/><path d="M26.15 56.61h13.18v5.61H26.15z" class="cls-59"/></g><g style="clip-path:url(#clippath-9)"><path d="M30.03 52.14h6.2v.03h-6.2z" class="cls-71"/><path d="M30.03 52.18h6.2v.34h-6.2z" class="cls-137"/><path d="M30.03 52.52h6.2v.34h-6.2z" class="cls-145"/><path d="M30.03 52.86h6.2v.34h-6.2z" class="cls-115"/><path d="M30.03 53.2h6.2v.34h-6.2z" class="cls-55"/><path d="M30.03 53.54h6.2v.34h-6.2z" class="cls-38"/><path d="M30.03 53.88h6.2v.34h-6.2z" class="cls-160"/><path d="M30.03 54.22h6.2v.34h-6.2z" class="cls-161"/><path d="M30.03 54.57h6.2v.34h-6.2z" class="cls-164"/><path d="M30.03 54.91h6.2v.34h-6.2z" class="cls-36"/><path d="M30.03 55.25h6.2v.34h-6.2z" class="cls-50"/><path d="M30.03 55.59h6.2v.34h-6.2z" class="cls-29"/><path d="M30.03 55.93h6.2v.34h-6.2z" class="cls-31"/><path d="M30.03 56.27h6.2v.34h-6.2z" class="cls-59"/><path d="M30.03 56.61h6.2v1.73h-6.2z" class="cls-59"/></g><g style="clip-path:url(#clippath-10)"><path d="M14.34 39.59h10.14v.29H14.34z" class="cls-97"/><path d="M14.34 39.88h10.14v.34H14.34z" class="cls-118"/><path d="M14.34 40.23h10.14v.34H14.34z" class="cls-32"/><path d="M14.34 40.57h10.14v.34H14.34z" class="cls-30"/><path d="M14.34 40.91h10.14v.34H14.34z" class="cls-7"/><path d="M14.34 41.25h10.14v.34H14.34z" class="cls-136"/><path d="M14.34 41.59h10.14v.34H14.34z" class="cls-113"/><path d="M14.34 41.93h10.14v.34H14.34z" class="cls-166"/><path d="M14.34 42.27h10.14v.23H14.34z" class="cls-100"/></g><g style="clip-path:url(#clippath-11)"><path d="M6.91 17.12H27.7v.23H6.91z" class="cls-37"/><path d="M6.91 17.35H27.7v.34H6.91z" class="cls-21"/><path d="M6.91 17.69H27.7v.34H6.91z" class="cls-116"/><path d="M6.91 18.03H27.7v.34H6.91z" class="cls-105"/><path d="M6.91 18.37H27.7v.34H6.91z" class="cls-165"/><path d="M6.91 18.71H27.7v.34H6.91z" class="cls-140"/><path d="M6.91 19.06H27.7v.34H6.91z" class="cls-148"/><path d="M6.91 19.4H27.7v.34H6.91z" class="cls-168"/><path d="M6.91 19.74H27.7v.34H6.91z" class="cls-150"/><path d="M6.91 20.08H27.7v.34H6.91z" class="cls-147"/><path d="M6.91 20.42H27.7v.34H6.91z" class="cls-110"/><path d="M6.91 20.76H27.7v.34H6.91z" class="cls-128"/><path d="M6.91 21.1H27.7v.34H6.91z" class="cls-45"/><path d="M6.91 21.45H27.7v.34H6.91z" class="cls-138"/><path d="M6.91 21.79H27.7v.34H6.91z" class="cls-112"/><path d="M6.91 22.13H27.7v.34H6.91z" class="cls-46"/><path d="M6.91 22.47H27.7v.34H6.91z" class="cls-74"/><path d="M6.91 22.81H27.7v.34H6.91z" class="cls-54"/><path d="M6.91 23.15H27.7v.34H6.91z" class="cls-84"/><path d="M6.91 23.49H27.7v.34H6.91z" class="cls-139"/><path d="M6.91 23.84H27.7v.34H6.91z" class="cls-6"/><path d="M6.91 24.18H27.7v.34H6.91z" class="cls-162"/><path d="M6.91 24.52H27.7v.34H6.91z" class="cls-22"/><path d="M6.91 24.86H27.7v.34H6.91z" class="cls-120"/><path d="M6.91 25.2H27.7v.34H6.91z" class="cls-12"/><path d="M6.91 25.54H27.7v.34H6.91z" class="cls-124"/><path d="M6.91 25.88H27.7v.34H6.91z" class="cls-143"/><path d="M6.91 26.23H27.7v.34H6.91z" class="cls-25"/><path d="M6.91 26.57H27.7v.34H6.91z" class="cls-144"/><path d="M6.91 26.91H27.7v.34H6.91z" class="cls-17"/><path d="M6.91 27.25H27.7v.34H6.91z" class="cls-2"/><path d="M6.91 27.59H27.7v.34H6.91z" class="cls-44"/><path d="M6.91 27.93H27.7v.34H6.91z" class="cls-14"/><path d="M6.91 28.27H27.7v.34H6.91z" class="cls-60"/><path d="M6.91 28.62H27.7v.34H6.91z" class="cls-16"/><path d="M6.91 28.96H27.7v.34H6.91z" class="cls-127"/><path d="M6.91 29.3H27.7v.34H6.91z" class="cls-66"/><path d="M6.91 29.64H27.7v.34H6.91z" class="cls-41"/><path d="M6.91 29.98H27.7v.34H6.91z" class="cls-119"/><path d="M6.91 30.32H27.7v.34H6.91z" class="cls-15"/><path d="M6.91 30.66H27.7V31H6.91z" class="cls-133"/><path d="M6.91 31.01H27.7v.34H6.91z" class="cls-163"/><path d="M6.91 31.35H27.7v.34H6.91z" class="cls-23"/><path d="M6.91 31.69H27.7v.34H6.91z" class="cls-154"/><path d="M6.91 32.03H27.7v.34H6.91z" class="cls-117"/><path d="M6.91 32.37H27.7v.34H6.91z" class="cls-39"/><path d="M6.91 32.71H27.7v.34H6.91z" class="cls-63"/><path d="M6.91 33.05H27.7v.34H6.91z" class="cls-132"/><path d="M6.91 33.4H27.7v.34H6.91z" class="cls-19"/><path d="M6.91 33.74H27.7v.34H6.91z" class="cls-152"/><path d="M6.91 34.08H27.7v.34H6.91z" class="cls-42"/><path d="M6.91 34.42H27.7v.34H6.91z" class="cls-157"/><path d="M6.91 34.76H27.7v.34H6.91z" class="cls-4"/><path d="M6.91 35.1H27.7v.34H6.91z" class="cls-26"/><path d="M6.91 35.44H27.7v.34H6.91z" class="cls-10"/><path d="M6.91 35.79H27.7v.34H6.91z" class="cls-64"/><path d="M6.91 36.13H27.7v.34H6.91z" class="cls-70"/><path d="M6.91 36.47H27.7v.34H6.91z" class="cls-65"/><path d="M6.91 36.81H27.7v.34H6.91z" class="cls-48"/><path d="M6.91 37.15H27.7v.34H6.91z" class="cls-142"/><path d="M6.91 37.49H27.7v.34H6.91z" class="cls-52"/><path d="M6.91 37.84H27.7v.34H6.91z" class="cls-158"/><path d="M6.91 38.18H27.7v.34H6.91z" class="cls-51"/><path d="M6.91 38.52H27.7v.34H6.91z" class="cls-72"/><path d="M6.91 38.86H27.7v.34H6.91z" class="cls-151"/><path d="M6.91 39.2H27.7v.34H6.91z" class="cls-135"/><path d="M6.91 39.54H27.7v.34H6.91z" class="cls-97"/><path d="M6.91 39.88H27.7v.34H6.91z" class="cls-118"/><path d="M6.91 40.23H27.7v.34H6.91z" class="cls-32"/><path d="M6.91 40.57H27.7v.34H6.91z" class="cls-30"/><path d="M6.91 40.91H27.7v.34H6.91z" class="cls-7"/><path d="M6.91 41.25H27.7v.34H6.91z" class="cls-136"/><path d="M6.91 41.59H27.7v.34H6.91z" class="cls-113"/><path d="M6.91 41.93H27.7v.34H6.91z" class="cls-166"/><path d="M6.91 42.27H27.7v.34H6.91z" class="cls-100"/><path d="M6.91 42.62H27.7v.14H6.91z" class="cls-99"/></g><g style="clip-path:url(#clippath-12)"><path d="M25.71 23.61h5.51v.22h-5.51z" class="cls-139"/><path d="M25.71 23.84h5.51v.34h-5.51z" class="cls-6"/><path d="M25.71 24.18h5.51v.34h-5.51z" class="cls-162"/><path d="M25.71 24.52h5.51v.34h-5.51z" class="cls-22"/><path d="M25.71 24.86h5.51v.34h-5.51z" class="cls-120"/><path d="M25.71 25.2h5.51v.34h-5.51z" class="cls-12"/><path d="M25.71 25.54h5.51v.34h-5.51z" class="cls-124"/><path d="M25.71 25.88h5.51v.34h-5.51z" class="cls-143"/><path d="M25.71 26.23h5.51v.34h-5.51z" class="cls-25"/><path d="M25.71 26.57h5.51v.34h-5.51z" class="cls-144"/><path d="M25.71 26.91h5.51v.34h-5.51z" class="cls-17"/><path d="M25.71 27.25h5.51v.34h-5.51z" class="cls-2"/><path d="M25.71 27.59h5.51v.34h-5.51z" class="cls-44"/><path d="M25.71 27.93h5.51v.34h-5.51z" class="cls-14"/><path d="M25.71 28.27h5.51v.34h-5.51z" class="cls-60"/><path d="M25.71 28.62h5.51v.34h-5.51z" class="cls-16"/><path d="M25.71 28.96h5.51v.34h-5.51z" class="cls-127"/><path d="M25.71 29.3h5.51v.34h-5.51z" class="cls-66"/><path d="M25.71 29.64h5.51v.34h-5.51z" class="cls-41"/><path d="M25.71 29.98h5.51v.34h-5.51z" class="cls-119"/><path d="M25.71 30.32h5.51v.34h-5.51z" class="cls-15"/><path d="M25.71 30.66h5.51V31h-5.51z" class="cls-133"/><path d="M25.71 31.01h5.51v.34h-5.51z" class="cls-163"/><path d="M25.71 31.35h5.51v.34h-5.51z" class="cls-23"/><path d="M25.71 31.69h5.51v.34h-5.51z" class="cls-154"/><path d="M25.71 32.03h5.51v.34h-5.51z" class="cls-117"/><path d="M25.71 32.37h5.51v.34h-5.51z" class="cls-39"/><path d="M25.71 32.71h5.51v.34h-5.51z" class="cls-63"/><path d="M25.71 33.05h5.51v.34h-5.51z" class="cls-132"/><path d="M25.71 33.4h5.51v.34h-5.51z" class="cls-19"/><path d="M25.71 33.74h5.51v.34h-5.51z" class="cls-152"/><path d="M25.71 34.08h5.51v.34h-5.51z" class="cls-42"/><path d="M25.71 34.42h5.51v.34h-5.51z" class="cls-157"/><path d="M25.71 34.76h5.51v.34h-5.51z" class="cls-4"/><path d="M25.71 35.1h5.51v.34h-5.51z" class="cls-26"/><path d="M25.71 35.44h5.51v.34h-5.51z" class="cls-10"/><path d="M25.71 35.79h5.51v.34h-5.51z" class="cls-64"/><path d="M25.71 36.13h5.51v.34h-5.51z" class="cls-70"/><path d="M25.71 36.47h5.51v.34h-5.51z" class="cls-65"/><path d="M25.71 36.81h5.51v.34h-5.51z" class="cls-48"/><path d="M25.71 37.15h5.51v.34h-5.51z" class="cls-142"/><path d="M25.71 37.49h5.51v.34h-5.51z" class="cls-52"/><path d="M25.71 37.84h5.51v.04h-5.51z" class="cls-158"/></g><g style="clip-path:url(#clippath-13)"><path d="M9.97 24.37h13.47v.15H9.97z" class="cls-162"/><path d="M9.97 24.52h13.47v.34H9.97z" class="cls-22"/><path d="M9.97 24.86h13.47v.34H9.97z" class="cls-120"/><path d="M9.97 25.2h13.47v.34H9.97z" class="cls-12"/><path d="M9.97 25.54h13.47v.34H9.97z" class="cls-124"/><path d="M9.97 25.88h13.47v.34H9.97z" class="cls-143"/><path d="M9.97 26.23h13.47v.34H9.97z" class="cls-25"/><path d="M9.97 26.57h13.47v.34H9.97z" class="cls-144"/><path d="M9.97 26.91h13.47v.34H9.97z" class="cls-17"/><path d="M9.97 27.25h13.47v.34H9.97z" class="cls-2"/><path d="M9.97 27.59h13.47v.34H9.97z" class="cls-44"/><path d="M9.97 27.93h13.47v.34H9.97z" class="cls-14"/><path d="M9.97 28.27h13.47v.34H9.97z" class="cls-60"/><path d="M9.97 28.62h13.47v.34H9.97z" class="cls-16"/><path d="M9.97 28.96h13.47v.34H9.97z" class="cls-127"/><path d="M9.97 29.3h13.47v.34H9.97z" class="cls-66"/><path d="M9.97 29.64h13.47v.34H9.97z" class="cls-41"/><path d="M9.97 29.98h13.47v.34H9.97z" class="cls-119"/><path d="M9.97 30.32h13.47v.34H9.97z" class="cls-15"/><path d="M9.97 30.66h13.47V31H9.97z" class="cls-133"/><path d="M9.97 31.01h13.47v.34H9.97z" class="cls-163"/><path d="M9.97 31.35h13.47v.34H9.97z" class="cls-23"/><path d="M9.97 31.69h13.47v.34H9.97z" class="cls-154"/><path d="M9.97 32.03h13.47v.34H9.97z" class="cls-117"/><path d="M9.97 32.37h13.47v.34H9.97z" class="cls-39"/><path d="M9.97 32.71h13.47v.34H9.97z" class="cls-63"/><path d="M9.97 33.05h13.47v.34H9.97z" class="cls-132"/><path d="M9.97 33.4h13.47v.34H9.97z" class="cls-19"/><path d="M9.97 33.74h13.47v.34H9.97z" class="cls-152"/><path d="M9.97 34.08h13.47v.34H9.97z" class="cls-42"/><path d="M9.97 34.42h13.47v.34H9.97z" class="cls-157"/><path d="M9.97 34.76h13.47v.34H9.97z" class="cls-4"/><path d="M9.97 35.1h13.47v.34H9.97z" class="cls-26"/><path d="M9.97 35.44h13.47v.34H9.97z" class="cls-10"/><path d="M9.97 35.79h13.47v.34H9.97z" class="cls-64"/><path d="M9.97 36.13h13.47v.34H9.97z" class="cls-70"/><path d="M9.97 36.47h13.47v.34H9.97z" class="cls-65"/><path d="M9.97 36.81h13.47v.34H9.97z" class="cls-48"/><path d="M9.97 37.15h13.47v.34H9.97z" class="cls-142"/><path d="M9.97 37.49h13.47v.33H9.97z" class="cls-52"/></g><g style="clip-path:url(#clippath-14)"><path d="M13.59 28.49h6.53v.13h-6.53z" class="cls-60"/><path d="M13.59 28.62h6.53v.34h-6.53z" class="cls-16"/><path d="M13.59 28.96h6.53v.34h-6.53z" class="cls-127"/><path d="M13.59 29.3h6.53v.34h-6.53z" class="cls-66"/><path d="M13.59 29.64h6.53v.34h-6.53z" class="cls-41"/><path d="M13.59 29.98h6.53v.34h-6.53z" class="cls-119"/><path d="M13.59 30.32h6.53v.34h-6.53z" class="cls-15"/><path d="M13.59 30.66h6.53V31h-6.53z" class="cls-133"/><path d="M13.59 31.01h6.53v.34h-6.53z" class="cls-163"/><path d="M13.59 31.35h6.53v.34h-6.53z" class="cls-23"/><path d="M13.59 31.69h6.53v.34h-6.53z" class="cls-154"/><path d="M13.59 32.03h6.53v.34h-6.53z" class="cls-117"/><path d="M13.59 32.37h6.53v.34h-6.53z" class="cls-39"/><path d="M13.59 32.71h6.53v.34h-6.53z" class="cls-63"/><path d="M13.59 33.05h6.53v.34h-6.53z" class="cls-132"/><path d="M13.59 33.4h6.53v.34h-6.53z" class="cls-19"/><path d="M13.59 33.74h6.53v.34h-6.53z" class="cls-152"/><path d="M13.59 34.08h6.53v.34h-6.53z" class="cls-42"/><path d="M13.59 34.42h6.53v.09h-6.53z" class="cls-157"/></g><g style="clip-path:url(#clippath-15)"><path d="M44.22 28.13h20.19v.14H44.22z" class="cls-14"/><path d="M44.22 28.27h20.19v.34H44.22z" class="cls-60"/><path d="M44.22 28.62h20.19v.34H44.22z" class="cls-16"/><path d="M44.22 28.96h20.19v.34H44.22z" class="cls-127"/><path d="M44.22 29.3h20.19v.34H44.22z" class="cls-66"/><path d="M44.22 29.64h20.19v.34H44.22z" class="cls-41"/><path d="M44.22 29.98h20.19v.34H44.22z" class="cls-119"/><path d="M44.22 30.32h20.19v.34H44.22z" class="cls-15"/><path d="M44.22 30.66h20.19V31H44.22z" class="cls-133"/><path d="M44.22 31.01h20.19v.34H44.22z" class="cls-163"/><path d="M44.22 31.35h20.19v.34H44.22z" class="cls-23"/><path d="M44.22 31.69h20.19v.34H44.22z" class="cls-154"/><path d="M44.22 32.03h20.19v.34H44.22z" class="cls-117"/><path d="M44.22 32.37h20.19v.34H44.22z" class="cls-39"/><path d="M44.22 32.71h20.19v.34H44.22z" class="cls-63"/><path d="M44.22 33.05h20.19v.34H44.22z" class="cls-132"/><path d="M44.22 33.4h20.19v.34H44.22z" class="cls-19"/><path d="M44.22 33.74h20.19v.34H44.22z" class="cls-152"/><path d="M44.22 34.08h20.19v.34H44.22z" class="cls-42"/><path d="M44.22 34.42h20.19v.34H44.22z" class="cls-157"/><path d="M44.22 34.76h20.19v.34H44.22z" class="cls-4"/><path d="M44.22 35.1h20.19v.34H44.22z" class="cls-26"/><path d="M44.22 35.44h20.19v.34H44.22z" class="cls-10"/><path d="M44.22 35.79h20.19v.34H44.22z" class="cls-64"/><path d="M44.22 36.13h20.19v.34H44.22z" class="cls-70"/><path d="M44.22 36.47h20.19v.34H44.22z" class="cls-65"/><path d="M44.22 36.81h20.19v.34H44.22z" class="cls-48"/><path d="M44.22 37.15h20.19v.34H44.22z" class="cls-142"/><path d="M44.22 37.49h20.19v.34H44.22z" class="cls-52"/><path d="M44.22 37.84h20.19v.34H44.22z" class="cls-158"/><path d="M44.22 38.18h20.19v.34H44.22z" class="cls-51"/><path d="M44.22 38.52h20.19v.34H44.22z" class="cls-72"/><path d="M44.22 38.86h20.19v.34H44.22z" class="cls-151"/><path d="M44.22 39.2h20.19v.34H44.22z" class="cls-135"/><path d="M44.22 39.54h20.19v.34H44.22z" class="cls-97"/><path d="M44.22 39.88h20.19v.34H44.22z" class="cls-118"/><path d="M44.22 40.23h20.19v.34H44.22z" class="cls-32"/><path d="M44.22 40.57h20.19v.34H44.22z" class="cls-30"/><path d="M44.22 40.91h20.19v.34H44.22z" class="cls-7"/><path d="M44.22 41.25h20.19v.34H44.22z" class="cls-136"/><path d="M44.22 41.59h20.19v.34H44.22z" class="cls-113"/><path d="M44.22 41.93h20.19v.34H44.22z" class="cls-166"/><path d="M44.22 42.27h20.19v.34H44.22z" class="cls-100"/><path d="M44.22 42.62h20.19v.34H44.22z" class="cls-99"/><path d="M44.22 42.96h20.19v.34H44.22z" class="cls-108"/><path d="M44.22 43.3h20.19v.34H44.22z" class="cls-102"/><path d="M44.22 43.64h20.19v.34H44.22z" class="cls-8"/><path d="M44.22 43.98h20.19v.34H44.22z" class="cls-35"/><path d="M44.22 44.32h20.19v.34H44.22z" class="cls-155"/><path d="M44.22 44.66h20.19V45H44.22z" class="cls-131"/><path d="M44.22 45.01h20.19v.34H44.22z" class="cls-33"/><path d="M44.22 45.35h20.19v.34H44.22z" class="cls-40"/><path d="M44.22 45.69h20.19v.34H44.22z" class="cls-114"/><path d="M44.22 46.03h20.19v.34H44.22z" class="cls-106"/><path d="M44.22 46.37h20.19v.34H44.22z" class="cls-85"/><path d="M44.22 46.71h20.19v.34H44.22z" class="cls-13"/><path d="M44.22 47.05h20.19v.34H44.22z" class="cls-141"/><path d="M44.22 47.4h20.19v.34H44.22z" class="cls-56"/><path d="M44.22 47.74h20.19v.34H44.22z" class="cls-58"/><path d="M44.22 48.08h20.19v.34H44.22z" class="cls-5"/><path d="M44.22 48.42h20.19v.34H44.22z" class="cls-57"/><path d="M44.22 48.76h20.19v.34H44.22z" class="cls-123"/><path d="M44.22 49.1h20.19v.34H44.22z" class="cls-98"/><path d="M44.22 49.44h20.19v.34H44.22z" class="cls-134"/><path d="M44.22 49.79h20.19v.34H44.22z" class="cls-9"/><path d="M44.22 50.13h20.19v.34H44.22z" class="cls-43"/><path d="M44.22 50.47h20.19v.34H44.22z" class="cls-146"/><path d="M44.22 50.81h20.19v.34H44.22z" class="cls-107"/><path d="M44.22 51.15h20.19v.34H44.22z" class="cls-96"/><path d="M44.22 51.49h20.19v.34H44.22z" class="cls-18"/><path d="M44.22 51.83h20.19v.34H44.22z" class="cls-71"/><path d="M44.22 52.18h20.19v.34H44.22z" class="cls-137"/><path d="M44.22 52.52h20.19v.34H44.22z" class="cls-145"/><path d="M44.22 52.86h20.19v.34H44.22z" class="cls-115"/><path d="M44.22 53.2h20.19v.34H44.22z" class="cls-55"/><path d="M44.22 53.54h20.19v.34H44.22z" class="cls-38"/><path d="M44.22 53.88h20.19v.34H44.22z" class="cls-160"/><path d="M44.22 54.22h20.19v.24H44.22z" class="cls-161"/></g><g style="clip-path:url(#clippath-16)"><path d="M40.1 33.01h5.51v.05H40.1z" class="cls-63"/><path d="M40.1 33.05h5.51v.34H40.1z" class="cls-132"/><path d="M40.1 33.4h5.51v.34H40.1z" class="cls-19"/><path d="M40.1 33.74h5.51v.34H40.1z" class="cls-152"/><path d="M40.1 34.08h5.51v.34H40.1z" class="cls-42"/><path d="M40.1 34.42h5.51v.34H40.1z" class="cls-157"/><path d="M40.1 34.76h5.51v.34H40.1z" class="cls-4"/><path d="M40.1 35.1h5.51v.34H40.1z" class="cls-26"/><path d="M40.1 35.44h5.51v.34H40.1z" class="cls-10"/><path d="M40.1 35.79h5.51v.34H40.1z" class="cls-64"/><path d="M40.1 36.13h5.51v.34H40.1z" class="cls-70"/><path d="M40.1 36.47h5.51v.34H40.1z" class="cls-65"/><path d="M40.1 36.81h5.51v.34H40.1z" class="cls-48"/><path d="M40.1 37.15h5.51v.34H40.1z" class="cls-142"/><path d="M40.1 37.49h5.51v.34H40.1z" class="cls-52"/><path d="M40.1 37.84h5.51v.34H40.1z" class="cls-158"/><path d="M40.1 38.18h5.51v.34H40.1z" class="cls-51"/><path d="M40.1 38.52h5.51v.34H40.1z" class="cls-72"/><path d="M40.1 38.86h5.51v.34H40.1z" class="cls-151"/><path d="M40.1 39.2h5.51v.34H40.1z" class="cls-135"/><path d="M40.1 39.54h5.51v.34H40.1z" class="cls-97"/><path d="M40.1 39.88h5.51v.34H40.1z" class="cls-118"/><path d="M40.1 40.23h5.51v.34H40.1z" class="cls-32"/><path d="M40.1 40.57h5.51v.34H40.1z" class="cls-30"/><path d="M40.1 40.91h5.51v.34H40.1z" class="cls-7"/><path d="M40.1 41.25h5.51v.34H40.1z" class="cls-136"/><path d="M40.1 41.59h5.51v.34H40.1z" class="cls-113"/><path d="M40.1 41.93h5.51v.34H40.1z" class="cls-166"/><path d="M40.1 42.27h5.51v.34H40.1z" class="cls-100"/><path d="M40.1 42.62h5.51v.34H40.1z" class="cls-99"/><path d="M40.1 42.96h5.51v.34H40.1z" class="cls-108"/><path d="M40.1 43.3h5.51v.34H40.1z" class="cls-102"/><path d="M40.1 43.64h5.51v.34H40.1z" class="cls-8"/><path d="M40.1 43.98h5.51v.34H40.1z" class="cls-35"/><path d="M40.1 44.32h5.51v.34H40.1z" class="cls-155"/><path d="M40.1 44.66h5.51V45H40.1z" class="cls-131"/><path d="M40.1 45.01h5.51v.34H40.1z" class="cls-33"/><path d="M40.1 45.35h5.51v.34H40.1z" class="cls-40"/><path d="M40.1 45.69h5.51v.34H40.1z" class="cls-114"/><path d="M40.1 46.03h5.51v.34H40.1z" class="cls-106"/><path d="M40.1 46.37h5.51v.34H40.1z" class="cls-85"/><path d="M40.1 46.71h5.51v.34H40.1z" class="cls-13"/><path d="M40.1 47.05h5.51v.22H40.1z" class="cls-141"/></g><g style="clip-path:url(#clippath-17)"><path d="M47.87 33.06h13.47v.34H47.87z" class="cls-132"/><path d="M47.87 33.4h13.47v.34H47.87z" class="cls-19"/><path d="M47.87 33.74h13.47v.34H47.87z" class="cls-152"/><path d="M47.87 34.08h13.47v.34H47.87z" class="cls-42"/><path d="M47.87 34.42h13.47v.34H47.87z" class="cls-157"/><path d="M47.87 34.76h13.47v.34H47.87z" class="cls-4"/><path d="M47.87 35.1h13.47v.34H47.87z" class="cls-26"/><path d="M47.87 35.44h13.47v.34H47.87z" class="cls-10"/><path d="M47.87 35.79h13.47v.34H47.87z" class="cls-64"/><path d="M47.87 36.13h13.47v.34H47.87z" class="cls-70"/><path d="M47.87 36.47h13.47v.34H47.87z" class="cls-65"/><path d="M47.87 36.81h13.47v.34H47.87z" class="cls-48"/><path d="M47.87 37.15h13.47v.34H47.87z" class="cls-142"/><path d="M47.87 37.49h13.47v.34H47.87z" class="cls-52"/><path d="M47.87 37.84h13.47v.34H47.87z" class="cls-158"/><path d="M47.87 38.18h13.47v.34H47.87z" class="cls-51"/><path d="M47.87 38.52h13.47v.34H47.87z" class="cls-72"/><path d="M47.87 38.86h13.47v.34H47.87z" class="cls-151"/><path d="M47.87 39.2h13.47v.34H47.87z" class="cls-135"/><path d="M47.87 39.54h13.47v.34H47.87z" class="cls-97"/><path d="M47.87 39.88h13.47v.34H47.87z" class="cls-118"/><path d="M47.87 40.23h13.47v.34H47.87z" class="cls-32"/><path d="M47.87 40.57h13.47v.34H47.87z" class="cls-30"/><path d="M47.87 40.91h13.47v.34H47.87z" class="cls-7"/><path d="M47.87 41.25h13.47v.34H47.87z" class="cls-136"/><path d="M47.87 41.59h13.47v.34H47.87z" class="cls-113"/><path d="M47.87 41.93h13.47v.34H47.87z" class="cls-166"/><path d="M47.87 42.27h13.47v.34H47.87z" class="cls-100"/><path d="M47.87 42.62h13.47v.34H47.87z" class="cls-99"/><path d="M47.87 42.96h13.47v.34H47.87z" class="cls-108"/><path d="M47.87 43.3h13.47v.34H47.87z" class="cls-102"/><path d="M47.87 43.64h13.47v.34H47.87z" class="cls-8"/><path d="M47.87 43.98h13.47v.34H47.87z" class="cls-35"/><path d="M47.87 44.32h13.47v.34H47.87z" class="cls-155"/><path d="M47.87 44.66h13.47V45H47.87z" class="cls-131"/><path d="M47.87 45.01h13.47v.34H47.87z" class="cls-33"/><path d="M47.87 45.35h13.47v.34H47.87z" class="cls-40"/><path d="M47.87 45.69h13.47v.34H47.87z" class="cls-114"/><path d="M47.87 46.03h13.47v.34H47.87z" class="cls-106"/><path d="M47.87 46.37h13.47v.14H47.87z" class="cls-85"/></g><g style="clip-path:url(#clippath-18)"><path d="M51.2 36.37h6.53v.1H51.2z" class="cls-70"/><path d="M51.2 36.47h6.53v.34H51.2z" class="cls-65"/><path d="M51.2 36.81h6.53v.34H51.2z" class="cls-48"/><path d="M51.2 37.15h6.53v.34H51.2z" class="cls-142"/><path d="M51.2 37.49h6.53v.34H51.2z" class="cls-52"/><path d="M51.2 37.84h6.53v.34H51.2z" class="cls-158"/><path d="M51.2 38.18h6.53v.34H51.2z" class="cls-51"/><path d="M51.2 38.52h6.53v.34H51.2z" class="cls-72"/><path d="M51.2 38.86h6.53v.34H51.2z" class="cls-151"/><path d="M51.2 39.2h6.53v.34H51.2z" class="cls-135"/><path d="M51.2 39.54h6.53v.34H51.2z" class="cls-97"/><path d="M51.2 39.88h6.53v.34H51.2z" class="cls-118"/><path d="M51.2 40.23h6.53v.34H51.2z" class="cls-32"/><path d="M51.2 40.57h6.53v.34H51.2z" class="cls-30"/><path d="M51.2 40.91h6.53v.34H51.2z" class="cls-7"/><path d="M51.2 41.25h6.53v.34H51.2z" class="cls-136"/><path d="M51.2 41.59h6.53v.34H51.2z" class="cls-113"/><path d="M51.2 41.93h6.53v.34H51.2z" class="cls-166"/><path d="M51.2 42.27h6.53v.12H51.2z" class="cls-100"/></g><path d="m25.09 36.74-3.76-13.23h-6.45v21.92h2.13v-15l4.39 15h3.55l4.27-15.26v15.26h6.13V23.51h-6.52l-3.74 13.23zm22.12-13.23v19.72h9.01v2.2H40.85V23.51h6.36Z" style="fill:#4d4d4d;stroke:#fff;stroke-linecap:square;stroke-linejoin:round;stroke-width:8px"/><path d="m25.09 36.74-3.76-13.23h-6.45v21.92h2.13v-15l4.39 15h3.55l4.27-15.26v15.26h6.13V23.51h-6.52l-3.74 13.23zm22.83-13.23v19.72h9.01v2.2H41.56V23.51h6.36Z" style="fill:#4d4d4d"/></g></svg>