<?xml version="1.0" encoding="utf-8"?>
<!-- Generator: Adobe Illustrator 27.9.1, SVG Export Plug-In . SVG Version: 6.00 Build 0)  -->
<svg version="1.1" id="Layer_1" xmlns="http://www.w3.org/2000/svg" xmlns:xlink="http://www.w3.org/1999/xlink" x="0px" y="0px"
	 viewBox="0 0 595.28 726.7" style="enable-background:new 0 0 595.28 726.7;" xml:space="preserve">
<style type="text/css">
	.st0{clip-path:url(#SVGID_00000036966371431613925570000004746646755544924304_);fill:none;}
	
		.st1{opacity:0.3;clip-path:url(#SVGID_00000036966371431613925570000004746646755544924304_);fill:url(#SVGID_00000026884863325280187020000003295752915147503267_);}
	
		.st2{opacity:0.45;clip-path:url(#SVGID_00000036966371431613925570000004746646755544924304_);fill:url(#SVGID_00000057856103430009805350000006154372137642490274_);}
	
		.st3{opacity:0.6;clip-path:url(#SVGID_00000036966371431613925570000004746646755544924304_);fill:url(#SVGID_00000072257502047439445780000004014532967829021117_);}
	
		.st4{opacity:0.6;clip-path:url(#SVGID_00000036966371431613925570000004746646755544924304_);fill:url(#SVGID_00000162345269543057723610000014295436494478750655_);}
	.st5{opacity:0.4;clip-path:url(#SVGID_00000036966371431613925570000004746646755544924304_);}
	.st6{fill:#FFFFFF;}
	.st7{opacity:0.15;clip-path:url(#SVGID_00000036966371431613925570000004746646755544924304_);fill:#FFFFFF;}
	.st8{opacity:0.6;clip-path:url(#SVGID_00000036966371431613925570000004746646755544924304_);}
	.st9{fill:none;stroke:#FFFFFF;stroke-width:0.49;stroke-miterlimit:10;}
	.st10{clip-path:url(#SVGID_00000036966371431613925570000004746646755544924304_);}
	.st11{opacity:0.6;fill:#FFFFFF;}
	.st12{opacity:0.6;fill:none;stroke:#FFFFFF;stroke-width:0.49;stroke-miterlimit:10;}
	.st13{opacity:0.6;clip-path:url(#SVGID_00000036966371431613925570000004746646755544924304_);fill:#FFFFFF;}
	
		.st14{opacity:0.6;clip-path:url(#SVGID_00000036966371431613925570000004746646755544924304_);fill:none;stroke:#FFFFFF;stroke-width:0.49;stroke-miterlimit:10;}
</style>
<g>
	<defs>
		<rect id="SVGID_1_" y="-0.93" width="595.28" height="728.55"/>
	</defs>
	
		<linearGradient id="SVGID_00000168821306743960923120000017385670220419524495_" gradientUnits="userSpaceOnUse" x1="297.6378" y1="727.6266" x2="297.6378" y2="-0.9256">
		<stop  offset="0" style="stop-color:#4178BC"/>
		<stop  offset="0.4459" style="stop-color:#4D85C5"/>
		<stop  offset="1" style="stop-color:#619BD3"/>
	</linearGradient>
	<use xlink:href="#SVGID_1_"  style="overflow:visible;fill:url(#SVGID_00000168821306743960923120000017385670220419524495_);"/>
	<clipPath id="SVGID_00000109738345515768644910000016458020721680023954_">
		<use xlink:href="#SVGID_1_"  style="overflow:visible;"/>
	</clipPath>
	
		<rect y="-0.93" style="clip-path:url(#SVGID_00000109738345515768644910000016458020721680023954_);fill:none;" width="595.28" height="728.55"/>
	
		<linearGradient id="SVGID_00000138548414440025133820000004241871654779013287_" gradientUnits="userSpaceOnUse" x1="272.9528" y1="563.1612" x2="295.6306" y2="822.3698">
		<stop  offset="0" style="stop-color:#4D86C6"/>
		<stop  offset="0.9146" style="stop-color:#4D86C6;stop-opacity:0"/>
	</linearGradient>
	
		<path style="opacity:0.3;clip-path:url(#SVGID_00000109738345515768644910000016458020721680023954_);fill:url(#SVGID_00000138548414440025133820000004241871654779013287_);" d="
		M-104.43,647.35c27.45-26.66,72.53-43.61,114.63-35.54c28.98,5.56,54.79,18.76,81.28,29.96c26.49,11.2,55.64,20.73,85.21,18.01
		c64.72-5.95,105.47-66.6,169.57-76.1c68.2-10.1,139.2,41.32,202.82,18.62c45.95-16.39,68.73-66.72,118.06-73.63v261.19h-771.58
		V647.35z"/>
	
		<linearGradient id="SVGID_00000020375608242425979680000016216957044729206164_" gradientUnits="userSpaceOnUse" x1="286.4696" y1="832.7772" x2="286.4696" y2="613.5477">
		<stop  offset="0.0854" style="stop-color:#4D86C6;stop-opacity:0"/>
		<stop  offset="1" style="stop-color:#4D86C6"/>
	</linearGradient>
	
		<path style="opacity:0.45;clip-path:url(#SVGID_00000109738345515768644910000016458020721680023954_);fill:url(#SVGID_00000020375608242425979680000016216957044729206164_);" d="
		M-44.31,666.86c35.54,5.84,55.24-0.17,84.77-16.12c19.83-10.71,36.56-25.97,60.2-30.6c28.87-5.65,58.7,6.54,80.95,21.45
		c22.25,14.91,41.13,33.19,67.27,43.98c54.29,22.39,123.8,5.6,172.71-22.92c21.16-12.34,40.3-26.79,63.34-37.06
		c23.05-10.26,51.71-15.97,76.81-8.92c20.64,5.8,35.82,19.25,55.49,26.71v189.39H-44.31V666.86z"/>
	
		<linearGradient id="SVGID_00000156569322786472033020000002354875922034335126_" gradientUnits="userSpaceOnUse" x1="9764.6934" y1="-3530.4358" x2="9764.6934" y2="-3812.2317" gradientTransform="matrix(-1 0 0 -1 10051.1611 -3613.2375)">
		<stop  offset="0.0401" style="stop-color:#FFFFFF;stop-opacity:0"/>
		<stop  offset="0.9671" style="stop-color:#FFFFFF;stop-opacity:0.9795"/>
		<stop  offset="0.9865" style="stop-color:#FFFFFF"/>
	</linearGradient>
	
		<path style="opacity:0.6;clip-path:url(#SVGID_00000109738345515768644910000016458020721680023954_);fill:url(#SVGID_00000156569322786472033020000002354875922034335126_);" d="
		M617.25,93.19c-35.54-11.6-55.24,0.34-84.77,32c-19.83,21.26-36.56,51.55-60.2,60.73c-28.87,11.21-58.7-12.98-80.95-42.57
		c-22.25-29.59-41.13-65.89-67.27-87.29c-54.29-44.44-123.8-11.12-172.71,45.49c-21.16,24.49-40.3,53.18-63.34,73.55
		c-23.05,20.37-51.71,31.71-76.81,17.7c-20.64-11.52-35.82-38.21-55.49-53.02V-82.8h661.56V93.19z"/>
	
		<linearGradient id="SVGID_00000000905377223122779260000008306617066215358649_" gradientUnits="userSpaceOnUse" x1="368.7113" y1="-3594.9968" x2="368.7113" y2="-3761.2134" gradientTransform="matrix(1 0 0 -1 0 -3613.2375)">
		<stop  offset="0" style="stop-color:#FFFFFF;stop-opacity:0"/>
		<stop  offset="0.9662" style="stop-color:#FFFFFF;stop-opacity:0.9795"/>
		<stop  offset="0.9865" style="stop-color:#FFFFFF"/>
	</linearGradient>
	
		<path style="opacity:0.6;clip-path:url(#SVGID_00000109738345515768644910000016458020721680023954_);fill:url(#SVGID_00000000905377223122779260000008306617066215358649_);" d="
		M-6.3,65.96c40.3-8.99,62.63,0.26,96.11,24.8c22.48,16.48,41.45,39.95,68.25,47.07c32.73,8.69,66.55-10.06,91.78-33
		c25.23-22.94,46.63-51.07,76.27-67.66c61.55-34.45,140.35-8.62,195.81,35.26c23.99,18.98,45.68,41.22,71.81,57.01
		c26.13,15.79,58.62,24.57,87.08,13.72c23.4-8.93,40.61-29.62,62.91-41.1V-18.24H-6.3V65.96z"/>
	<g style="opacity:0.4;clip-path:url(#SVGID_00000109738345515768644910000016458020721680023954_);">
		<path class="st6" d="M96.33,141.16c0,2.42-1.96,4.38-4.38,4.38c-2.42,0-4.38-1.96-4.38-4.38c0-2.42,1.96-4.38,4.38-4.38
			C94.37,136.78,96.33,138.74,96.33,141.16z"/>
		<path class="st6" d="M418.32,564.73c0,2.42-1.96,4.38-4.38,4.38c-2.42,0-4.38-1.96-4.38-4.38c0-2.42,1.96-4.38,4.38-4.38
			C416.36,560.35,418.32,562.31,418.32,564.73z"/>
		<path class="st6" d="M124,682.05c0,1.24-1,2.24-2.24,2.24c-1.24,0-2.24-1-2.24-2.24c0-1.24,1-2.24,2.24-2.24
			C122.99,679.82,124,680.82,124,682.05z"/>
		<circle class="st6" cx="497.25" cy="559.33" r="4.8"/>
		<path class="st6" d="M148.91,646.43c0,3.04-2.47,5.51-5.51,5.51c-3.04,0-5.51-2.47-5.51-5.51c0-3.04,2.47-5.51,5.51-5.51
			C146.44,640.92,148.91,643.39,148.91,646.43z"/>
		<path class="st6" d="M101.76,111.23c0,1.45-1.18,2.63-2.63,2.63c-1.45,0-2.63-1.18-2.63-2.63c0-1.45,1.18-2.63,2.63-2.63
			C100.59,108.6,101.76,109.78,101.76,111.23z"/>
		<path class="st6" d="M486.64,598.65c0,1.45-1.18,2.63-2.63,2.63s-2.63-1.18-2.63-2.63s1.18-2.63,2.63-2.63
			S486.64,597.19,486.64,598.65z"/>
		<circle class="st6" cx="40.62" cy="127.43" r="1.58"/>
		<path class="st6" d="M542.68,418.64c0,0.87-0.71,1.58-1.58,1.58c-0.87,0-1.58-0.71-1.58-1.58c0-0.87,0.71-1.58,1.58-1.58
			C541.98,417.06,542.68,417.77,542.68,418.64z"/>
		<path class="st6" d="M198.47,602.53c0,0.85-0.69,1.54-1.54,1.54c-0.85,0-1.54-0.69-1.54-1.54c0-0.85,0.69-1.54,1.54-1.54
			C197.79,600.99,198.47,601.68,198.47,602.53z"/>
		<path class="st6" d="M55.08,574.53c0,1.79-1.45,3.24-3.24,3.24c-1.79,0-3.24-1.45-3.24-3.24c0-1.79,1.45-3.24,3.24-3.24
			C53.63,571.29,55.08,572.74,55.08,574.53z"/>
		<circle class="st6" cx="501.31" cy="462.36" r="1.58"/>
	</g>
	<path style="opacity:0.15;clip-path:url(#SVGID_00000109738345515768644910000016458020721680023954_);fill:#FFFFFF;" d="
		M592.6,806.06h2.68V-70.13h-2.68v50.33h-56.77v-50.33h-2.68v50.33h-56.77v-50.33h-2.68v50.33h-56.77v-50.33h-2.68v50.33h-56.77
		v-50.33h-2.68v50.33h-56.77v-50.33h-2.68v50.33H238.6v-50.33h-2.68v50.33h-56.77v-50.33h-2.68v50.33H119.7v-50.33h-2.68v50.33
		H60.25v-50.33h-2.68v50.33H0.81v-50.33h-2.68v876.19h2.68v-50.38h56.77v50.38h2.68v-50.38h56.77v50.38h2.68v-50.38h56.77v50.38
		h2.68v-50.38h56.77v50.38h2.68v-50.38h56.77v50.38h2.68v-50.38h56.77v50.38h2.68v-50.38h56.77v50.38h2.68v-50.38h56.77v50.38h2.68
		v-50.38h56.77v50.38h2.68v-50.38h56.77V806.06z M57.57,753H0.81v-56.77h56.77V753z M117.02,753H60.25v-56.77h56.77V753z
		 M176.47,753H119.7v-56.77h56.77V753z M235.92,753h-56.77v-56.77h56.77V753z M295.36,753H238.6v-56.77h56.77V753z M354.81,753
		h-56.77v-56.77h56.77V753z M414.26,753h-56.77v-56.77h56.77V753z M473.7,753h-56.77v-56.77h56.77V753z M533.15,753h-56.77v-56.77
		h56.77V753z M592.6,753h-56.77v-56.77h56.77V753z M57.57,693.55H0.81v-56.77h56.77V693.55z M117.02,693.55H60.25v-56.77h56.77
		V693.55z M176.47,693.55H119.7v-56.77h56.77V693.55z M235.92,693.55h-56.77v-56.77h56.77V693.55z M295.36,693.55H238.6v-56.77
		h56.77V693.55z M354.81,693.55h-56.77v-56.77h56.77V693.55z M414.26,693.55h-56.77v-56.77h56.77V693.55z M473.7,693.55h-56.77
		v-56.77h56.77V693.55z M533.15,693.55h-56.77v-56.77h56.77V693.55z M592.6,693.55h-56.77v-56.77h56.77V693.55z M57.57,634.11H0.81
		v-56.77h56.77V634.11z M117.02,634.11H60.25v-56.77h56.77V634.11z M176.47,634.11H119.7v-56.77h56.77V634.11z M235.92,634.11
		h-56.77v-56.77h56.77V634.11z M295.36,634.11H238.6v-56.77h56.77V634.11z M354.81,634.11h-56.77v-56.77h56.77V634.11z
		 M414.26,634.11h-56.77v-56.77h56.77V634.11z M473.7,634.11h-56.77v-56.77h56.77V634.11z M533.15,634.11h-56.77v-56.77h56.77
		V634.11z M592.6,634.11h-56.77v-56.77h56.77V634.11z M57.57,574.66H0.81V517.9h56.77V574.66z M117.02,574.66H60.25V517.9h56.77
		V574.66z M176.47,574.66H119.7V517.9h56.77V574.66z M235.92,574.66h-56.77V517.9h56.77V574.66z M295.36,574.66H238.6V517.9h56.77
		V574.66z M354.81,574.66h-56.77V517.9h56.77V574.66z M414.26,574.66h-56.77V517.9h56.77V574.66z M473.7,574.66h-56.77V517.9h56.77
		V574.66z M533.15,574.66h-56.77V517.9h56.77V574.66z M592.6,574.66h-56.77V517.9h56.77V574.66z M57.57,515.22H0.81v-56.77h56.77
		V515.22z M117.02,515.22H60.25v-56.77h56.77V515.22z M176.47,515.22H119.7v-56.77h56.77V515.22z M235.92,515.22h-56.77v-56.77
		h56.77V515.22z M295.36,515.22H238.6v-56.77h56.77V515.22z M354.81,515.22h-56.77v-56.77h56.77V515.22z M414.26,515.22h-56.77
		v-56.77h56.77V515.22z M473.7,515.22h-56.77v-56.77h56.77V515.22z M533.15,515.22h-56.77v-56.77h56.77V515.22z M592.6,515.22
		h-56.77v-56.77h56.77V515.22z M57.57,455.77H0.81V399h56.77V455.77z M117.02,455.77H60.25V399h56.77V455.77z M176.47,455.77H119.7
		V399h56.77V455.77z M235.92,455.77h-56.77V399h56.77V455.77z M295.36,455.77H238.6V399h56.77V455.77z M354.81,455.77h-56.77V399
		h56.77V455.77z M414.26,455.77h-56.77V399h56.77V455.77z M473.7,455.77h-56.77V399h56.77V455.77z M533.15,455.77h-56.77V399h56.77
		V455.77z M592.6,455.77h-56.77V399h56.77V455.77z M57.57,396.32H0.81v-56.77h56.77V396.32z M117.02,396.32H60.25v-56.77h56.77
		V396.32z M176.47,396.32H119.7v-56.77h56.77V396.32z M235.92,396.32h-56.77v-56.77h56.77V396.32z M295.36,396.32H238.6v-56.77
		h56.77V396.32z M354.81,396.32h-56.77v-56.77h56.77V396.32z M414.26,396.32h-56.77v-56.77h56.77V396.32z M473.7,396.32h-56.77
		v-56.77h56.77V396.32z M533.15,396.32h-56.77v-56.77h56.77V396.32z M592.6,396.32h-56.77v-56.77h56.77V396.32z M57.57,336.88H0.81
		v-56.77h56.77V336.88z M117.02,336.88H60.25v-56.77h56.77V336.88z M176.47,336.88H119.7v-56.77h56.77V336.88z M235.92,336.88
		h-56.77v-56.77h56.77V336.88z M295.36,336.88H238.6v-56.77h56.77V336.88z M354.81,336.88h-56.77v-56.77h56.77V336.88z
		 M414.26,336.88h-56.77v-56.77h56.77V336.88z M473.7,336.88h-56.77v-56.77h56.77V336.88z M533.15,336.88h-56.77v-56.77h56.77
		V336.88z M592.6,336.88h-56.77v-56.77h56.77V336.88z M57.57,277.43H0.81v-56.77h56.77V277.43z M117.02,277.43H60.25v-56.77h56.77
		V277.43z M176.47,277.43H119.7v-56.77h56.77V277.43z M235.92,277.43h-56.77v-56.77h56.77V277.43z M295.36,277.43H238.6v-56.77
		h56.77V277.43z M354.81,277.43h-56.77v-56.77h56.77V277.43z M414.26,277.43h-56.77v-56.77h56.77V277.43z M473.7,277.43h-56.77
		v-56.77h56.77V277.43z M533.15,277.43h-56.77v-56.77h56.77V277.43z M592.6,277.43h-56.77v-56.77h56.77V277.43z M57.57,217.98H0.81
		v-56.77h56.77V217.98z M117.02,217.98H60.25v-56.77h56.77V217.98z M176.47,217.98H119.7v-56.77h56.77V217.98z M235.92,217.98
		h-56.77v-56.77h56.77V217.98z M295.36,217.98H238.6v-56.77h56.77V217.98z M354.81,217.98h-56.77v-56.77h56.77V217.98z
		 M414.26,217.98h-56.77v-56.77h56.77V217.98z M473.7,217.98h-56.77v-56.77h56.77V217.98z M533.15,217.98h-56.77v-56.77h56.77
		V217.98z M592.6,217.98h-56.77v-56.77h56.77V217.98z M57.57,158.53H0.81v-56.77h56.77V158.53z M117.02,158.53H60.25v-56.77h56.77
		V158.53z M176.47,158.53H119.7v-56.77h56.77V158.53z M235.92,158.53h-56.77v-56.77h56.77V158.53z M295.36,158.53H238.6v-56.77
		h56.77V158.53z M354.81,158.53h-56.77v-56.77h56.77V158.53z M414.26,158.53h-56.77v-56.77h56.77V158.53z M473.7,158.53h-56.77
		v-56.77h56.77V158.53z M533.15,158.53h-56.77v-56.77h56.77V158.53z M592.6,158.53h-56.77v-56.77h56.77V158.53z M57.57,99.09H0.81
		V42.32h56.77V99.09z M117.02,99.09H60.25V42.32h56.77V99.09z M176.47,99.09H119.7V42.32h56.77V99.09z M235.92,99.09h-56.77V42.32
		h56.77V99.09z M295.36,99.09H238.6V42.32h56.77V99.09z M354.81,99.09h-56.77V42.32h56.77V99.09z M414.26,99.09h-56.77V42.32h56.77
		V99.09z M473.7,99.09h-56.77V42.32h56.77V99.09z M533.15,99.09h-56.77V42.32h56.77V99.09z M592.6,99.09h-56.77V42.32h56.77V99.09z
		 M57.57,39.64H0.81v-56.77h56.77V39.64z M117.02,39.64H60.25v-56.77h56.77V39.64z M176.47,39.64H119.7v-56.77h56.77V39.64z
		 M235.92,39.64h-56.77v-56.77h56.77V39.64z M295.36,39.64H238.6v-56.77h56.77V39.64z M354.81,39.64h-56.77v-56.77h56.77V39.64z
		 M414.26,39.64h-56.77v-56.77h56.77V39.64z M473.7,39.64h-56.77v-56.77h56.77V39.64z M533.15,39.64h-56.77v-56.77h56.77V39.64z
		 M592.6,39.64h-56.77v-56.77h56.77V39.64z"/>
	<g style="opacity:0.6;clip-path:url(#SVGID_00000109738345515768644910000016458020721680023954_);">
		<g>
			<line class="st9" x1="-87.01" y1="759.99" x2="164.75" y2="508.23"/>
			<g>
				<path class="st6" d="M-84.82,761.97c-1.15,1.15-3.02,1.15-4.17,0c-1.15-1.15-1.15-3.02,0-4.17c1.15-1.15,3.02-1.15,4.17,0
					C-83.67,758.95-83.67,760.82-84.82,761.97z"/>
			</g>
			<g>
				<path class="st6" d="M166.73,510.42c1.15-1.15,1.15-3.02,0-4.17c-1.15-1.15-3.02-1.15-4.17,0c-1.15,1.15-1.15,3.02,0,4.17
					C163.71,511.57,165.58,511.57,166.73,510.42z"/>
			</g>
		</g>
	</g>
	<g style="opacity:0.6;clip-path:url(#SVGID_00000109738345515768644910000016458020721680023954_);">
		<g>
			<line class="st9" x1="492.64" y1="250.61" x2="697.91" y2="45.34"/>
			<g>
				<path class="st6" d="M494.83,252.59c-1.15,1.15-3.02,1.15-4.17,0s-1.15-3.02,0-4.17c1.15-1.15,3.02-1.15,4.17,0
					C495.98,249.58,495.98,251.44,494.83,252.59z"/>
			</g>
			<g>
				<path class="st6" d="M699.89,47.53c1.15-1.15,1.15-3.02,0-4.17c-1.15-1.15-3.02-1.15-4.17,0c-1.15,1.15-1.15,3.02,0,4.17
					C696.88,48.68,698.74,48.68,699.89,47.53z"/>
			</g>
		</g>
	</g>
	<g style="opacity:0.6;clip-path:url(#SVGID_00000109738345515768644910000016458020721680023954_);">
		<g>
			<line class="st9" x1="432.66" y1="754.58" x2="637.93" y2="549.3"/>
			<g>
				<path class="st6" d="M434.84,756.56c-1.15,1.15-3.02,1.15-4.17,0c-1.15-1.15-1.15-3.02,0-4.17c1.15-1.15,3.02-1.15,4.17,0
					C435.99,753.54,435.99,755.41,434.84,756.56z"/>
			</g>
			<g>
				<path class="st6" d="M639.91,551.49c1.15-1.15,1.15-3.02,0-4.17c-1.15-1.15-3.02-1.15-4.17,0c-1.15,1.15-1.15,3.02,0,4.17
					C636.89,552.64,638.76,552.64,639.91,551.49z"/>
			</g>
		</g>
	</g>
	<g style="opacity:0.6;clip-path:url(#SVGID_00000109738345515768644910000016458020721680023954_);">
		<g>
			<line class="st9" x1="466.78" y1="782.45" x2="672.06" y2="577.18"/>
			<g>
				<path class="st6" d="M468.97,784.43c-1.15,1.15-3.02,1.15-4.17,0c-1.15-1.15-1.15-3.02,0-4.17c1.15-1.15,3.02-1.15,4.17,0
					C470.12,781.42,470.12,783.28,468.97,784.43z"/>
			</g>
			<g>
				<path class="st6" d="M674.04,579.37c1.15-1.15,1.15-3.02,0-4.17c-1.15-1.15-3.02-1.15-4.17,0c-1.15,1.15-1.15,3.02,0,4.17
					C671.02,580.52,672.89,580.52,674.04,579.37z"/>
			</g>
		</g>
	</g>
	<g style="opacity:0.6;clip-path:url(#SVGID_00000109738345515768644910000016458020721680023954_);">
		<g>
			<line class="st9" x1="149.21" y1="232.79" x2="462.82" y2="-80.82"/>
			<g>
				<path class="st6" d="M151.4,234.77c-1.15,1.15-3.02,1.15-4.17,0s-1.15-3.02,0-4.17c1.15-1.15,3.02-1.15,4.17,0
					S152.55,233.62,151.4,234.77z"/>
			</g>
			<g>
				<path class="st6" d="M464.8-78.63c1.15-1.15,1.15-3.02,0-4.17s-3.02-1.15-4.17,0c-1.15,1.15-1.15,3.02,0,4.17
					S463.65-77.48,464.8-78.63z"/>
			</g>
		</g>
	</g>
	<g style="opacity:0.6;clip-path:url(#SVGID_00000109738345515768644910000016458020721680023954_);">
		<g>
			<line class="st9" x1="288.51" y1="132.5" x2="602.12" y2="-181.11"/>
			<g>
				<path class="st6" d="M290.7,134.48c-1.15,1.15-3.02,1.15-4.17,0s-1.15-3.02,0-4.17c1.15-1.15,3.02-1.15,4.17,0
					S291.85,133.33,290.7,134.48z"/>
			</g>
			<g>
				<path class="st6" d="M604.1-178.92c1.15-1.15,1.15-3.02,0-4.17c-1.15-1.15-3.02-1.15-4.17,0c-1.15,1.15-1.15,3.02,0,4.17
					C601.09-177.77,602.95-177.77,604.1-178.92z"/>
			</g>
		</g>
	</g>
	<g style="opacity:0.6;clip-path:url(#SVGID_00000109738345515768644910000016458020721680023954_);">
		<g>
			<line class="st9" x1="-44.4" y1="785.32" x2="139.12" y2="601.79"/>
			<g>
				<path class="st6" d="M-42.21,787.3c-1.15,1.15-3.02,1.15-4.17,0c-1.15-1.15-1.15-3.02,0-4.17c1.15-1.15,3.02-1.15,4.17,0
					C-41.06,784.28-41.06,786.14-42.21,787.3z"/>
			</g>
			<g>
				<path class="st6" d="M141.1,603.98c1.15-1.15,1.15-3.02,0-4.17c-1.15-1.15-3.02-1.15-4.17,0c-1.15,1.15-1.15,3.02,0,4.17
					C138.08,605.13,139.95,605.13,141.1,603.98z"/>
			</g>
		</g>
	</g>
	<g style="clip-path:url(#SVGID_00000109738345515768644910000016458020721680023954_);">
		<path class="st11" d="M458.69,599.81c0,7.38-5.99,13.37-13.37,13.37c-7.38,0-13.37-5.99-13.37-13.37s5.99-13.37,13.37-13.37
			C452.7,586.44,458.69,592.43,458.69,599.81z"/>
		<circle class="st12" cx="445.32" cy="599.81" r="26.29"/>
	</g>
	<g style="clip-path:url(#SVGID_00000109738345515768644910000016458020721680023954_);">
		<circle class="st11" cx="59.64" cy="197.53" r="13.37"/>
		<circle class="st12" cx="59.64" cy="197.53" r="26.29"/>
	</g>
	<path style="opacity:0.6;clip-path:url(#SVGID_00000109738345515768644910000016458020721680023954_);fill:#FFFFFF;" d="
		M482.72,59.06c-9.24,4.98-20.77,1.52-25.75-7.72c-4.98-9.24-1.52-20.77,7.72-25.75c9.24-4.98,20.77-1.52,25.75,7.72
		S491.96,54.08,482.72,59.06z"/>
	
		<ellipse transform="matrix(0.1563 -0.9877 0.9877 0.1563 357.8573 503.5858)" style="opacity:0.6;clip-path:url(#SVGID_00000109738345515768644910000016458020721680023954_);fill:none;stroke:#FFFFFF;stroke-width:0.49;stroke-miterlimit:10;" cx="473.7" cy="42.32" rx="28.74" ry="28.74"/>
</g>
</svg>
